<?xml version="1.0" encoding="UTF-8" standalone="no"?>
<svg
   id="svg"
   version="1.1"
   width="109.03648"
   height="134.43498"
   viewBox="0 0 109.03648 134.43498"
   sodipodi:docname="image2vector.svg"
   xml:space="preserve"
   inkscape:version="1.4.3 (0d15f75, 2025-12-25)"
   inkscape:export-filename="image2vector.png"
   inkscape:export-xdpi="96"
   inkscape:export-ydpi="96"
   xmlns:inkscape="http://www.inkscape.org/namespaces/inkscape"
   xmlns:sodipodi="http://sodipodi.sourceforge.net/DTD/sodipodi-0.dtd"
   xmlns="http://www.w3.org/2000/svg"
   xmlns:svg="http://www.w3.org/2000/svg"><defs
     id="defs1" /><sodipodi:namedview
     id="namedview1"
     pagecolor="#ffffff"
     bordercolor="#000000"
     borderopacity="0.25"
     inkscape:showpageshadow="2"
     inkscape:pageopacity="0.0"
     inkscape:pagecheckerboard="0"
     inkscape:deskcolor="#d1d1d1"
     inkscape:zoom="2.20875"
     inkscape:cx="34.408602"
     inkscape:cy="83.078664"
     inkscape:window-width="1920"
     inkscape:window-height="1001"
     inkscape:window-x="-9"
     inkscape:window-y="-9"
     inkscape:window-maximized="1"
     inkscape:current-layer="svgg" /><g
     id="svgg"
     inkscape:label="dfnl"
     transform="translate(-146.47004,-15.521177)"><path
       id="path2"
       d="m 162.491,16.392 c -1.827,1.517 -1.794,1.429 -0.913,2.362 0.416,0.439 0.755,0.711 0.755,0.604 0,-0.107 0.405,-0.635 0.9,-1.173 1.493,-1.624 1.562,-1.777 1.03,-2.271 -0.583,-0.54 -0.529,-0.554 -1.772,0.478 m 75.02,-0.496 c -0.263,0.491 -0.119,0.797 1.013,2.16 0.637,0.765 0.787,1.058 0.708,1.375 -0.139,0.553 -0.004,0.508 0.755,-0.252 1.25,-1.25 1.222,-1.411 -0.508,-2.85 -1.107,-0.921 -1.644,-1.039 -1.968,-0.433 m -73.054,2.76 c -0.959,0.756 -1.342,0.966 -1.628,0.891 -0.222,-0.058 -0.348,-0.028 -0.31,0.073 0.079,0.208 3.104,3.5 3.554,3.867 0.178,0.145 0.74,0.713 1.249,1.263 0.509,0.55 1.952,2.05 3.207,3.333 1.255,1.284 3.355,3.452 4.668,4.819 1.312,1.366 2.948,3.016 3.635,3.666 0.687,0.65 1.924,1.892 2.75,2.759 3.63,3.813 9.867,9.968 10.212,10.077 0.224,0.071 0.332,0.2 0.267,0.316 -0.29,0.513 1.208,-1.062 1.627,-1.711 1.253,-1.941 0.223,-2.438 -1.67,-0.807 -1.413,1.219 -1.658,0.731 -0.44,-0.876 l 0.912,-1.205 -0.34,-0.477 c -0.467,-0.657 -0.595,-0.614 -2.132,0.721 -1.326,1.151 -1.712,0.721 -0.589,-0.656 1.129,-1.385 1.211,-1.622 0.736,-2.127 -0.512,-0.546 -0.48,-0.555 -1.695,0.491 -1.549,1.332 -1.814,0.767 -0.385,-0.822 0.861,-0.958 0.886,-1.064 0.363,-1.555 -0.565,-0.531 -0.814,-0.461 -1.978,0.554 -1.598,1.393 -2.015,0.963 -0.641,-0.661 0.908,-1.075 1.001,-1.39 0.533,-1.813 -0.442,-0.4 -0.564,-0.362 -1.779,0.557 -0.605,0.459 -1.167,0.834 -1.249,0.834 -0.437,0 -0.259,-0.454 0.572,-1.455 1.018,-1.227 1.045,-1.303 0.667,-1.842 -0.349,-0.5 -0.951,-0.351 -1.823,0.452 -0.987,0.908 -1.181,1.028 -1.479,0.913 -0.435,-0.167 -0.327,-0.423 0.655,-1.549 1.016,-1.165 1.09,-1.549 0.379,-1.978 -0.438,-0.265 -0.461,-0.255 -1.499,0.595 -1.781,1.458 -2.161,1.121 -0.72,-0.639 0.971,-1.187 1.017,-1.449 0.332,-1.897 -0.419,-0.275 -0.406,-0.282 -2.15,1.122 -0.532,0.429 -0.619,0.451 -0.929,0.234 -0.335,-0.235 -0.326,-0.262 0.493,-1.371 0.942,-1.277 1.015,-1.626 0.418,-2.018 -0.459,-0.3 -0.285,-0.389 -2.056,1.046 -0.433,0.352 -0.616,0.412 -0.833,0.276 -0.426,-0.269 -0.349,-0.465 0.609,-1.553 0.966,-1.098 1.014,-1.376 0.324,-1.891 l -0.456,-0.34 -0.627,0.531 c -1.612,1.366 -1.668,1.398 -2.044,1.197 -0.351,-0.188 -0.348,-0.198 0.216,-0.887 1.325,-1.616 1.531,-2.246 0.876,-2.675 -0.397,-0.26 -0.442,-0.242 -1.625,0.65 -1.929,1.454 -2.331,1.086 -0.806,-0.735 1.153,-1.377 1.124,-1.286 0.619,-1.917 -0.443,-0.554 -0.576,-0.518 -1.798,0.484 -0.403,0.33 -0.862,0.707 -1.021,0.836 -0.295,0.241 -0.795,0.168 -0.795,-0.117 0,-0.087 0.378,-0.622 0.839,-1.19 1.026,-1.264 1.162,-1.689 0.69,-2.161 -0.438,-0.438 -0.744,-0.316 -2.167,0.868 -0.874,0.728 -1.078,0.829 -1.362,0.677 -0.424,-0.227 -0.419,-0.371 0.024,-0.766 0.493,-0.438 1.976,-2.223 1.976,-2.378 0,-0.225 -0.672,-0.856 -0.913,-0.856 -0.128,0 -0.799,0.455 -1.491,1.012 -1.155,0.929 -1.284,0.992 -1.592,0.776 -0.325,-0.227 -0.3,-0.28 0.747,-1.609 1.214,-1.541 1.23,-1.586 0.708,-2.021 -0.504,-0.421 -0.418,-0.452 -1.835,0.665 m 70.977,-0.617 c -0.354,0.385 -0.145,0.993 0.629,1.823 1.693,1.818 1.363,2.476 -0.492,0.983 -1.381,-1.111 -1.618,-1.182 -2.179,-0.655 -0.471,0.442 -0.386,0.633 0.966,2.166 1.051,1.191 1.156,1.397 0.648,1.264 -0.181,-0.047 -0.312,-0.037 -0.292,0.022 0.126,0.377 -0.329,0.152 -1.386,-0.684 -1.309,-1.035 -1.62,-1.131 -2.067,-0.637 -0.393,0.434 -0.244,0.822 0.752,1.96 0.811,0.927 1.078,1.719 0.58,1.719 -0.132,0 -0.29,-0.081 -0.352,-0.181 -0.209,-0.339 -2.11,-1.652 -2.384,-1.647 -1.064,0.02 -0.925,1.037 0.332,2.437 1.206,1.343 0.539,1.822 -0.894,0.642 -2.236,-1.841 -3.169,-0.413 -1.038,1.589 1.039,0.976 0.342,1.533 -0.777,0.621 -1.323,-1.077 -1.471,-1.141 -2.017,-0.859 -0.672,0.348 -0.583,0.798 0.38,1.909 1.258,1.453 0.784,2.289 -0.593,1.046 -1.168,-1.054 -1.353,-1.137 -1.833,-0.822 -0.673,0.441 -0.476,1.099 0.758,2.525 1.088,1.257 0.224,1.515 -1.068,0.319 -1.13,-1.046 -1.411,-1.18 -1.699,-0.811 -0.603,0.77 -0.596,0.805 0.347,1.915 1.35,1.588 1.015,2.133 -0.504,0.818 -1.21,-1.048 -1.388,-1.107 -1.873,-0.622 -0.536,0.536 -0.438,0.825 0.712,2.114 1.034,1.158 1.011,1.108 0.611,1.322 -0.241,0.129 -0.525,-0.032 -1.459,-0.825 -1.416,-1.204 -1.913,-1.277 -2.155,-0.313 -0.087,0.347 0.062,0.63 0.829,1.564 1.41,1.721 0.903,1.91 -0.93,0.346 -1.014,-0.866 -1.131,-0.892 -1.623,-0.369 l -0.362,0.385 0.483,0.762 c 0.266,0.419 0.562,0.811 0.659,0.87 0.463,0.287 0.854,1.06 0.63,1.246 -0.172,0.143 -0.438,-0.004 -1.173,-0.647 -2.071,-1.812 -3.493,-0.705 -1.517,1.181 0.874,0.834 1.177,1.485 0.692,1.485 -0.214,0 -0.694,-0.332 -2.003,-1.387 -1.39,-1.119 -1.731,0.264 -0.437,1.775 1.483,1.733 1.043,2.006 -0.809,0.502 -0.986,-0.801 -1.12,-0.839 -1.656,-0.464 -0.568,0.398 -0.452,0.821 0.552,2.004 1.32,1.556 0.885,2.01 -0.626,0.651 -2.266,-2.037 -2.735,-0.005 -0.494,2.14 l 0.492,0.471 0.895,-0.777 c 1.499,-1.303 23.761,-23.752 25.615,-25.832 0.409,-0.458 1.214,-1.332 1.789,-1.942 l 1.047,-1.109 -1.002,-0.807 c -2.146,-1.732 -2.187,-1.75 -2.704,-1.186 m -85.777,9.899 c -1.304,1.258 -1.471,1.626 -1.083,2.377 0.384,0.743 1.258,0.341 2.832,-1.304 0.543,-0.567 0.841,-0.642 0.992,-0.25 0.064,0.166 -0.146,0.523 -0.578,0.984 -1.538,1.641 -1.694,2.003 -1.101,2.559 0.538,0.505 0.602,0.485 1.966,-0.63 2.019,-1.649 2.106,-1.106 0.204,1.271 -0.652,0.815 -0.676,0.989 -0.199,1.496 0.406,0.433 0.692,0.353 1.56,-0.435 1.274,-1.158 1.71,-1.393 1.905,-1.027 0.154,0.287 0.039,0.494 -0.818,1.469 -1.087,1.237 -1.134,1.364 -0.734,1.975 0.391,0.596 0.704,0.517 1.988,-0.506 1.606,-1.28 2.007,-1.068 0.771,0.406 -1.259,1.5 -1.312,1.636 -0.826,2.122 0.499,0.499 0.677,0.438 2.104,-0.722 1.617,-1.313 2.011,-0.769 0.626,0.864 -0.996,1.174 -1.111,1.533 -0.628,1.971 0.443,0.4 0.536,0.367 1.798,-0.64 1.771,-1.414 2.055,-1.241 0.714,0.436 -1.262,1.579 -1.283,1.638 -0.714,2.093 0.621,0.497 0.569,0.508 1.613,-0.343 1.964,-1.6 2.486,-1.336 0.951,0.479 -0.924,1.093 -0.991,1.351 -0.492,1.887 0.407,0.438 0.554,0.38 2.076,-0.817 1.442,-1.132 1.617,-0.843 0.413,0.684 -1.038,1.317 -1.18,1.737 -0.705,2.098 0.479,0.363 0.755,0.273 1.93,-0.63 1.416,-1.086 1.874,-0.932 0.846,0.284 -1.06,1.254 -1.282,1.677 -1.079,2.058 0.368,0.686 0.794,0.602 1.948,-0.384 1.048,-0.894 1.446,-1.087 1.628,-0.792 0.077,0.124 -0.567,0.991 -1.663,2.236 -0.498,0.565 -0.496,0.615 0.029,1.114 0.472,0.447 0.893,0.321 1.902,-0.569 1.669,-1.472 2.067,-1.066 0.584,0.596 -1.012,1.134 -1.046,1.235 -0.593,1.777 0.441,0.529 0.589,0.488 1.933,-0.542 2.054,-1.573 2.068,-1.029 0.031,1.222 l -0.654,0.723 0.379,0.402 c 0.553,0.59 0.427,0.634 2.806,-0.971 1.137,-0.767 1.102,-0.165 -0.069,1.178 -1.014,1.162 -1.029,1.203 -0.653,1.776 0.336,0.514 0.777,0.369 2.042,-0.673 1.666,-1.371 1.433,-0.279 -0.284,1.333 -0.624,0.585 -0.642,0.756 -0.136,1.231 0.538,0.506 0.78,0.463 1.979,-0.355 1.59,-1.084 1.595,-1.086 1.232,-0.526 -0.176,0.272 -0.607,0.836 -0.958,1.254 -0.782,0.932 -0.819,1.375 -0.139,1.656 0.56,0.232 0.46,0.283 2,-1.013 0.828,-0.696 1.334,-0.878 1.334,-0.478 0,0.081 -0.488,0.688 -1.084,1.35 -1.209,1.342 -1.26,1.487 -0.668,1.875 0.579,0.38 1.243,0.069 2.407,-1.126 l 0.905,-0.929 -1.746,-1.798 c -0.96,-0.988 -2.164,-2.285 -2.675,-2.881 -1.083,-1.263 -1.525,-1.732 -4.793,-5.083 -1.34,-1.375 -3.523,-3.663 -4.85,-5.083 -1.327,-1.421 -3.201,-3.39 -4.163,-4.375 -0.963,-0.985 -2.687,-2.773 -3.833,-3.973 -1.146,-1.2 -3.021,-3.144 -4.167,-4.319 -1.146,-1.176 -2.678,-2.763 -3.404,-3.527 -1.785,-1.879 -1.585,-1.843 -2.939,-0.535 m 98.465,1.687 c -1.507,1.535 -3.139,3.242 -3.627,3.792 -0.488,0.55 -1.418,1.525 -2.066,2.167 -0.648,0.642 -1.545,1.58 -1.993,2.084 -0.447,0.503 -2.359,2.518 -4.25,4.476 -3.609,3.74 -3.824,3.963 -7.686,7.948 -1.329,1.372 -3.332,3.506 -4.451,4.743 -1.12,1.237 -2.555,2.807 -3.189,3.49 l -1.154,1.241 0.602,0.721 c 1.166,1.395 2.309,1.886 2.751,1.182 0.23,-0.367 -0.03,-0.849 -1.108,-2.059 -0.631,-0.708 -0.783,-0.978 -0.636,-1.125 0.218,-0.218 0.178,-0.24 1.604,0.911 1.153,0.929 1.412,1.016 1.909,0.641 0.451,-0.34 0.373,-0.541 -0.768,-1.995 -1.03,-1.312 -0.902,-1.486 0.382,-0.514 2.53,1.915 3.26,0.562 0.989,-1.834 -1.087,-1.148 -0.515,-1.209 0.906,-0.097 1.318,1.031 1.455,1.075 2,0.633 0.454,-0.367 0.352,-0.619 -0.761,-1.872 -0.712,-0.801 -0.869,-1.143 -0.635,-1.377 0.059,-0.059 0.681,0.294 1.382,0.785 l 1.273,0.892 0.452,-0.36 c 0.612,-0.488 0.596,-0.542 -0.554,-1.912 -0.94,-1.119 -1.099,-1.519 -0.601,-1.519 0.113,0 0.502,0.304 0.865,0.677 0.362,0.372 0.909,0.833 1.215,1.023 l 0.557,0.345 0.419,-0.419 c 0.54,-0.54 0.435,-0.883 -0.632,-2.061 -1.304,-1.44 -1.02,-1.916 0.429,-0.718 1.275,1.053 1.598,1.182 2.048,0.818 0.534,-0.433 0.48,-0.623 -0.544,-1.908 -0.504,-0.632 -0.917,-1.207 -0.917,-1.277 0,-0.365 0.423,-0.293 0.89,0.151 0.29,0.276 0.9,0.736 1.357,1.022 l 0.83,0.52 0.291,-0.378 c 0.453,-0.588 0.367,-0.862 -0.618,-1.992 -1.399,-1.604 -1.208,-1.97 0.388,-0.744 2.274,1.747 3.038,0.825 1.173,-1.416 -1.279,-1.536 -0.734,-1.822 0.918,-0.483 1.382,1.121 1.613,1.189 2.002,0.596 0.371,-0.566 0.383,-0.537 -0.727,-1.801 -1.328,-1.51 -1.176,-2.213 0.23,-1.061 0.376,0.308 0.94,0.716 1.254,0.907 l 0.57,0.347 0.471,-0.335 c 0.552,-0.394 0.519,-0.5 -0.638,-2.009 -1.226,-1.601 -0.92,-1.949 0.581,-0.659 1.37,1.178 1.603,1.273 2.02,0.825 0.495,-0.531 0.447,-0.669 -0.658,-1.914 -1.083,-1.22 -1.068,-1.192 -0.84,-1.551 0.129,-0.204 0.274,-0.155 0.872,0.293 1.266,0.949 2.189,1.453 2.262,1.235 0.037,-0.11 0.165,-0.2 0.285,-0.2 0.636,0 0.255,-0.937 -0.934,-2.297 -1.085,-1.242 -0.543,-1.51 0.798,-0.394 1.467,1.219 1.593,1.262 2.105,0.726 0.517,-0.543 0.469,-0.666 -0.827,-2.105 -0.976,-1.084 -0.997,-1.132 -0.645,-1.424 0.199,-0.165 0.417,-0.06 1.194,0.573 1.504,1.224 1.773,1.324 2.236,0.831 l 0.384,-0.408 -0.653,-0.96 c -0.36,-0.527 -0.822,-1.145 -1.029,-1.374 -0.442,-0.489 -0.454,-0.562 -0.129,-0.832 0.204,-0.169 0.428,-0.046 1.292,0.705 1.498,1.302 1.619,1.351 2.094,0.839 0.529,-0.571 0.411,-0.925 -0.727,-2.182 -1.171,-1.294 -0.987,-2.295 0.204,-1.105 1.861,1.862 2.891,2.014 2.891,0.427 0,-0.255 -2.309,-2.687 -2.551,-2.687 -0.048,0 -1.32,1.257 -2.827,2.792 m -52.117,25.074 c -1.657,1.779 -0.13,5.349 1.838,4.296 1.015,-0.544 1.219,-3.433 0.306,-4.346 -0.462,-0.462 -1.693,-0.433 -2.144,0.05 m 7.868,0.009 c -1.892,2.02 0.219,5.892 2.156,3.955 0.687,-0.687 0.676,-3.163 -0.016,-3.9 -0.542,-0.576 -1.625,-0.604 -2.14,-0.055 m -6.206,1.94 c 0,1.025 -0.34,1.736 -0.753,1.578 -0.351,-0.135 -0.628,-1.332 -0.502,-2.17 0.237,-1.582 1.255,-1.102 1.255,0.592 m 7.858,-0.513 c 0.181,1.489 -0.385,2.555 -0.951,1.791 -0.283,-0.38 -0.323,-1.96 -0.063,-2.447 0.362,-0.675 0.893,-0.331 1.014,0.656 m -14.489,9.659 c -0.579,0.287 -0.674,0.788 -0.151,0.791 0.475,0.002 0.61,0.411 0.612,1.853 0.005,2.554 0.883,2.368 0.978,-0.207 0.101,-2.751 -0.106,-3.101 -1.439,-2.437 m 18.918,0.002 c -0.569,0.352 -0.524,0.769 0.089,0.84 0.456,0.053 0.457,0.054 0.459,1.417 0.003,1.765 0.106,2.146 0.561,2.081 0.338,-0.048 0.356,-0.152 0.4,-2.342 l 0.046,-2.292 -0.546,0.004 c -0.3,0.003 -0.755,0.134 -1.009,0.292 m -26.839,10.971 c -0.548,0.297 -0.549,0.837 -0.003,0.78 0.434,-0.045 0.555,0.459 0.555,2.307 v 1.313 h 0.5 0.5 v -2.07 c 0,-2.749 -0.207,-3.059 -1.552,-2.33 M 218.44,78.2 c -1.457,1.294 -0.71,4.467 1.051,4.467 2.208,0 2.34,-4.655 0.136,-4.8 -0.597,-0.04 -0.846,0.03 -1.187,0.333 m 1.564,0.894 c 0.397,1.044 0.091,2.739 -0.494,2.739 -0.466,0 -0.677,-0.492 -0.677,-1.583 0,-1.476 0.763,-2.229 1.171,-1.156 m -45.316,4 c -0.41,0.521 -0.339,0.741 0.591,1.841 1.2,1.417 0.876,1.78 -0.56,0.627 -0.533,-0.429 -1.052,-0.843 -1.154,-0.921 -0.191,-0.148 -1.065,0.423 -1.065,0.696 0,0.08 0.375,0.641 0.833,1.246 1.312,1.733 1.13,1.862 -0.662,0.469 l -1.22,-0.947 -0.391,0.489 c -0.541,0.676 -0.508,0.817 0.44,1.854 1.432,1.567 0.916,1.942 -0.717,0.522 -1.496,-1.301 -2.636,-0.544 -1.441,0.956 1.326,1.664 1.18,2.064 -0.325,0.895 -1.189,-0.924 -1.557,-1.002 -1.944,-0.412 -0.311,0.474 -0.211,0.936 0.319,1.471 1.646,1.665 1.057,2.182 -0.68,0.596 -0.836,-0.762 -0.917,-0.775 -1.367,-0.204 -0.486,0.619 -0.456,0.715 0.583,1.864 0.842,0.93 1.016,1.364 0.547,1.364 -0.094,0 -0.559,-0.327 -1.032,-0.727 -1.3,-1.1 -1.492,-1.17 -1.934,-0.699 -0.439,0.468 -0.344,0.735 0.683,1.908 1.16,1.324 0.638,1.79 -0.73,0.653 -1.473,-1.225 -1.363,-1.178 -1.855,-0.79 -0.579,0.455 -0.584,0.438 0.472,1.787 1.156,1.477 0.98,1.966 -0.32,0.892 -1.245,-1.029 -1.484,-1.119 -1.988,-0.752 -0.584,0.425 -0.545,0.725 0.203,1.58 1.473,1.681 1.164,2.21 -0.486,0.831 -1.111,-0.928 -1.312,-0.995 -1.687,-0.558 -0.478,0.556 -0.45,0.661 0.453,1.724 1.291,1.518 1.064,2.123 -0.349,0.932 -1.49,-1.256 -1.593,-1.287 -2.063,-0.627 l -0.347,0.488 0.932,1.007 c 1.517,1.639 0.981,2.279 -0.719,0.859 -1.114,-0.931 -1.349,-0.997 -1.792,-0.507 -0.376,0.415 -0.236,0.775 0.733,1.896 0.75,0.866 0.79,0.974 0.461,1.247 -0.172,0.144 -0.461,-0.021 -1.279,-0.729 -1.199,-1.038 -1.35,-1.081 -1.737,-0.491 -0.281,0.428 0.277,1.375 1.318,2.238 0.477,0.396 0.226,1.005 -0.415,1.005 -0.078,0 -0.609,-0.375 -1.18,-0.834 -1.168,-0.937 -1.356,-0.988 -1.724,-0.463 -0.364,0.519 -0.363,0.52 0.657,1.63 0.98,1.066 1.025,1.158 0.717,1.467 -0.3,0.3 -0.369,0.268 -1.4,-0.634 -1.05,-0.919 -1.363,-1.002 -1.83,-0.486 -0.386,0.428 -0.159,0.886 1.18,2.373 l 0.833,0.927 6.853,-6.865 c 3.769,-3.776 9.985,-9.958 13.812,-13.739 l 6.959,-6.873 -0.27,-0.412 c -0.298,-0.455 -2.203,-2.091 -2.434,-2.091 -0.08,0 -0.297,0.192 -0.482,0.427 m 16.737,-0.162 c -0.948,0.948 -1.069,3.425 -0.203,4.169 1.489,1.281 3.154,-0.459 2.709,-2.831 -0.249,-1.332 -1.725,-2.119 -2.506,-1.338 m 33.827,0.832 -1.258,1.097 0.486,0.614 c 0.267,0.337 2.259,2.337 4.427,4.444 2.167,2.107 8.19,8.052 13.385,13.21 l 9.444,9.38 0.82,-0.869 c 1.477,-1.564 1.656,-2.17 0.782,-2.638 -0.265,-0.142 -0.478,-0.044 -1.219,0.559 -1.923,1.566 -2.575,1.316 -1.044,-0.4 0.99,-1.109 1.102,-1.45 0.62,-1.885 -0.462,-0.418 -0.751,-0.341 -1.635,0.435 -1.401,1.23 -1.371,1.214 -1.643,0.855 -0.342,-0.451 -0.327,-0.496 0.463,-1.365 1.188,-1.306 1.18,-1.289 0.862,-1.773 -0.387,-0.591 -0.526,-0.554 -1.745,0.478 -0.801,0.679 -1.125,0.862 -1.284,0.73 -0.317,-0.263 -0.278,-0.359 0.498,-1.243 1.198,-1.365 1.166,-1.292 0.778,-1.786 -0.492,-0.626 -0.782,-0.558 -1.992,0.466 -0.801,0.678 -1.125,0.862 -1.284,0.73 -0.341,-0.284 -0.265,-0.454 0.712,-1.599 l 0.926,-1.084 -0.45,-0.47 c -0.516,-0.539 -0.584,-0.52 -1.825,0.506 -1.558,1.287 -1.889,0.764 -0.493,-0.779 1.062,-1.173 1.079,-1.239 0.433,-1.699 -0.65,-0.463 -0.683,-0.455 -1.739,0.405 -1.528,1.245 -1.773,0.869 -0.433,-0.662 l 0.844,-0.964 -0.441,-0.46 c -0.543,-0.567 -0.775,-0.515 -1.93,0.433 -1.626,1.333 -1.834,0.655 -0.31,-1.013 0.71,-0.779 0.757,-1.158 0.192,-1.56 -0.558,-0.398 -0.752,-0.315 -1.978,0.857 -0.447,0.426 -0.79,0.628 -0.959,0.564 -0.396,-0.152 -0.339,-0.276 0.655,-1.415 1.029,-1.181 1.047,-1.232 0.583,-1.696 -0.484,-0.484 -0.696,-0.426 -1.853,0.502 -1.221,0.98 -1.641,0.904 -0.901,-0.163 0.256,-0.37 0.515,-0.673 0.574,-0.673 0.314,0 0.703,-1.022 0.494,-1.299 -0.624,-0.827 -0.77,-0.805 -2.2,0.326 -1.345,1.063 -1.485,0.825 -0.364,-0.619 0.823,-1.06 0.903,-1.384 0.445,-1.799 -0.404,-0.365 -0.58,-0.348 -1.141,0.111 -2.232,1.829 -2.716,1.505 -0.935,-0.625 0.651,-0.778 0.668,-0.924 0.162,-1.399 -0.523,-0.491 -0.562,-0.48 -1.701,0.467 -0.548,0.456 -1.086,0.831 -1.195,0.833 -0.466,0.01 -0.355,-0.376 0.32,-1.119 1.229,-1.35 1.206,-1.299 0.799,-1.871 -0.467,-0.656 -0.492,-0.652 -1.786,0.328 -0.606,0.458 -1.16,0.833 -1.233,0.833 -0.431,0 -0.179,-0.526 0.915,-1.904 0.435,-0.549 0.461,-0.649 0.265,-1.016 -0.399,-0.746 -0.76,-0.683 -1.847,0.324 -0.552,0.511 -1.107,0.929 -1.234,0.929 -0.467,0 -0.441,-0.376 0.067,-0.972 0.287,-0.336 0.719,-0.894 0.96,-1.24 l 0.439,-0.63 -0.387,-0.412 c -0.518,-0.551 -0.476,-0.566 -1.911,0.685 m -32.557,0.012 c 0.643,0.581 0.273,2.891 -0.463,2.891 -0.647,0 -0.882,-1.997 -0.338,-2.869 0.231,-0.37 0.411,-0.375 0.801,-0.022 m 11.668,2.23 c -0.602,0.366 -0.629,0.713 -0.064,0.797 0.41,0.06 0.514,0.47 0.577,2.279 0.035,0.989 0.088,1.174 0.354,1.224 0.489,0.094 0.598,-0.268 0.601,-1.993 0.004,-2.746 -0.206,-3.077 -1.468,-2.307 M 183,96.234 c -0.687,0.679 -6.478,6.491 -12.868,12.917 -6.39,6.425 -11.695,11.682 -11.788,11.682 -0.187,0 0.848,0.965 1.93,1.801 1.713,1.322 2.447,0.124 0.991,-1.617 -1.167,-1.395 -0.543,-1.658 1.032,-0.435 1.108,0.86 1.662,0.836 1.954,-0.085 0.109,-0.343 0.073,-0.403 -1.185,-1.952 -0.434,-0.534 -0.448,-1.045 -0.028,-1.045 0.118,0 0.687,0.412 1.266,0.917 1.228,1.071 1.167,1.056 1.767,0.429 l 0.468,-0.488 -0.774,-1.005 c -0.425,-0.553 -0.847,-1.05 -0.936,-1.106 -0.175,-0.108 0.085,-0.749 0.302,-0.745 0.065,0.001 0.636,0.418 1.267,0.926 l 1.148,0.924 0.477,-0.457 c 0.641,-0.615 0.62,-0.708 -0.455,-1.975 -1.4,-1.65 -0.818,-2.13 0.763,-0.63 0.86,0.817 1.261,0.925 1.779,0.479 0.557,-0.478 0.468,-0.773 -0.6,-2.008 -1.097,-1.266 -0.535,-1.744 0.764,-0.65 1.36,1.145 1.289,1.121 1.872,0.631 0.699,-0.588 0.67,-0.728 -0.41,-2.001 -1.423,-1.677 -0.937,-2.206 0.681,-0.741 0.948,0.859 1.208,0.957 1.761,0.661 0.508,-0.272 0.385,-0.726 -0.521,-1.924 -1.331,-1.759 -0.843,-2.145 0.828,-0.654 1.172,1.046 1.311,1.082 1.835,0.479 0.462,-0.531 0.382,-0.757 -0.725,-2.039 -0.61,-0.708 -0.731,-0.943 -0.579,-1.125 0.279,-0.337 0.341,-0.312 1.484,0.602 1.174,0.939 1.347,0.983 1.827,0.469 0.479,-0.514 0.443,-0.647 -0.501,-1.879 -1.252,-1.634 -0.833,-1.968 0.741,-0.59 1.115,0.976 1.036,0.957 1.632,0.385 0.619,-0.593 0.604,-0.665 -0.366,-1.753 -1.425,-1.6 -0.936,-2.207 0.66,-0.819 1.093,0.951 1.341,1.018 1.834,0.489 0.49,-0.527 0.435,-0.73 -0.494,-1.802 -1.36,-1.57 -0.9,-1.887 0.722,-0.499 1.139,0.976 1.275,0.999 1.847,0.319 l 0.433,-0.514 -0.54,-0.751 c -0.297,-0.414 -0.67,-0.822 -0.83,-0.907 -0.46,-0.246 -0.692,-0.792 -0.456,-1.075 0.308,-0.372 0.436,-0.308 1.518,0.76 1.141,1.128 1.308,1.18 1.794,0.561 0.538,-0.684 0.428,-1.008 -0.765,-2.244 -1.341,-1.389 -1.054,-1.398 -2.556,0.084 m 33.48,-0.159 c -1.349,1.453 -1.398,1.588 -0.818,2.274 l 0.479,0.568 0.804,-0.768 c 1.196,-1.139 1.532,-1.333 1.909,-1.097 0.451,0.281 0.395,0.467 -0.364,1.206 -0.373,0.362 -0.832,0.907 -1.02,1.21 l -0.343,0.552 0.382,0.407 c 0.523,0.556 0.653,0.526 1.841,-0.427 1.683,-1.351 2.191,-1.014 0.749,0.498 -0.987,1.034 -1.123,1.445 -0.628,1.893 0.474,0.428 0.761,0.34 1.807,-0.556 1.046,-0.896 1.237,-0.968 1.552,-0.589 0.168,0.202 0.067,0.401 -0.569,1.125 -0.921,1.049 -1.081,1.517 -0.672,1.969 0.421,0.464 0.548,0.427 1.793,-0.529 0.93,-0.714 1.155,-0.821 1.366,-0.646 0.361,0.3 0.346,0.334 -0.665,1.502 -1.074,1.24 -1.107,1.414 -0.342,1.779 0.566,0.27 0.583,0.267 1.185,-0.211 1.376,-1.093 1.626,-1.233 1.854,-1.043 0.338,0.28 0.277,0.439 -0.511,1.34 -1.093,1.25 -1.225,1.556 -0.848,1.972 0.169,0.188 0.41,0.302 0.535,0.254 0.126,-0.048 0.182,-0.013 0.126,0.077 -0.243,0.393 0.278,0.109 1.025,-0.559 1.113,-0.996 1.468,-1.17 1.733,-0.851 0.223,0.269 0.261,0.207 -0.977,1.575 -1.215,1.343 -0.171,2.409 1.182,1.207 1.44,-1.279 1.427,-1.271 1.702,-1.043 0.388,0.322 0.311,0.582 -0.425,1.433 -1.265,1.461 -1.299,1.553 -0.731,2.008 0.65,0.519 0.605,0.532 1.847,-0.522 1.183,-1.003 1.257,-1.034 1.565,-0.663 0.232,0.279 0.165,0.386 -1.058,1.689 -0.409,0.436 -0.603,0.77 -0.522,0.901 0.083,0.135 0.06,0.166 -0.064,0.089 -0.392,-0.242 -0.176,0.194 0.311,0.628 0.599,0.533 0.811,0.463 2.031,-0.667 0.843,-0.781 0.995,-0.843 1.267,-0.515 0.131,0.158 -0.081,0.521 -0.834,1.427 l -1.011,1.215 0.47,0.49 c 0.621,0.648 0.721,0.63 1.891,-0.344 1.688,-1.404 2.233,-0.958 0.868,0.709 -0.974,1.189 -0.994,1.266 -0.457,1.771 l 0.395,0.371 1.063,-0.81 c 1.418,-1.081 1.458,-1.1 1.738,-0.868 0.348,0.289 0.335,0.317 -0.672,1.502 -1.044,1.228 -1.064,1.298 -0.517,1.812 0.488,0.458 0.875,0.373 1.741,-0.383 1.116,-0.973 1.165,-0.999 1.44,-0.77 0.366,0.303 0.311,0.516 -0.304,1.166 -0.913,0.965 -1.161,1.431 -0.962,1.803 0.402,0.751 1.143,0.467 3.07,-1.176 l 0.637,-0.543 -0.736,-0.801 c -2.329,-2.536 -24.611,-24.688 -25.038,-24.891 -0.283,-0.135 -0.476,-0.005 -1.27,0.85 m -1.618,7.591 c -0.815,0.372 -0.929,0.917 -0.192,0.917 0.402,0 0.414,0.037 0.455,1.334 0.059,1.852 0.129,2.083 0.633,2.083 h 0.418 l -0.046,-2.29 c -0.053,-2.588 -0.058,-2.597 -1.268,-2.044 m -28.82,0.683 c -0.777,0.387 -0.999,0.927 -0.309,0.754 0.533,-0.134 0.6,0.089 0.6,1.98 0,1.607 0.078,1.784 0.713,1.619 0.269,-0.069 0.292,-0.289 0.25,-2.346 -0.052,-2.569 -0.07,-2.598 -1.254,-2.007 m 21.655,0.489 c -0.579,0.354 -0.68,0.91 -0.164,0.914 0.454,0.004 0.506,0.165 0.576,1.776 0.064,1.486 0.178,1.796 0.662,1.803 0.263,0.003 0.396,-0.808 0.396,-2.414 0,-2.498 -0.236,-2.831 -1.47,-2.079"
       stroke="none"
       fill="#bf8c58"
       fill-rule="evenodd"
       style="display:inline;fill:#ecab00;fill-opacity:1"
       inkscape:label="path 1" /><path
       id="path0"
       d="m 159.144,18.125 c -0.525,0.439 -4.893,4.648 -7.094,6.836 -1.226,1.219 -1.227,1.221 -0.467,1.8 0.321,0.245 0.588,0.53 0.593,0.634 0.005,0.103 0.455,0.563 1,1.02 0.545,0.458 0.991,0.889 0.991,0.957 0,0.068 0.843,0.974 1.875,2.012 1.031,1.039 2.392,2.463 3.025,3.166 0.633,0.702 1.27,1.317 1.417,1.367 0.146,0.049 0.716,0.628 1.266,1.287 0.55,0.658 1.712,1.915 2.583,2.792 0.871,0.877 1.841,1.893 2.156,2.258 0.315,0.364 1.14,1.263 1.833,1.998 0.694,0.734 2.161,2.3 3.261,3.481 1.1,1.18 2.713,2.869 3.584,3.754 0.87,0.885 2.106,2.206 2.745,2.936 1.31,1.497 3.149,3.419 6.38,6.668 1.214,1.222 2.284,2.421 2.377,2.666 0.308,0.809 0.065,7.782 -0.28,8.034 C 186.17,71.951 184.423,72 178.94,72 h -7.163 l -2.264,-2.225 c -1.244,-1.223 -2.539,-2.468 -2.877,-2.766 -1.053,-0.93 -1.135,-1.269 -1.142,-4.701 -0.007,-3.435 0.036,-3.285 -1.349,-4.788 -0.892,-0.968 -0.942,-1.07 -1.012,-2.044 -0.192,-2.644 -3.635,-2.677 -3.632,-0.034 0.001,1.32 0.487,1.778 1.979,1.862 l 1.19,0.067 0.767,0.854 c 1.048,1.165 1.063,1.23 1.063,4.626 0,3.768 -0.156,3.454 3.527,7.081 3.499,3.446 2.145,3.097 11.831,3.056 8.746,-0.036 8.057,-0.173 8,1.595 -0.042,1.345 0.028,1.436 0.703,0.905 0.645,-0.507 0.657,-2.506 0.02,-3.193 -0.689,-0.744 -0.748,-1.147 -0.748,-5.181 -0.001,-4.531 0.161,-4.053 -2.219,-6.531 -1.926,-2.004 -1.899,-1.75 -0.343,-3.259 l 1.271,-1.232 4.469,4.524 c 5.325,5.39 4.843,4.359 4.783,10.246 l -0.044,4.388 -1.247,0.124 c -2.049,0.205 -2.489,0.513 -6.49,4.536 -1.964,1.974 -3.614,3.588 -3.667,3.586 -0.053,-0.002 -0.696,-0.571 -1.429,-1.263 -0.734,-0.693 -1.688,-1.595 -2.122,-2.004 -1.359,-1.285 -0.978,-1.227 -8.033,-1.228 L 166.441,79 163.929,76.521 c -4.169,-4.114 -4.615,-4.511 -5.168,-4.597 -0.281,-0.043 -2.253,-0.105 -4.382,-0.136 l -3.871,-0.057 -0.546,-0.627 c -0.921,-1.06 -2.451,-1.01 -3.128,0.1 -1.399,2.295 1.679,4.118 3.386,2.005 0.393,-0.486 7.902,-0.587 8.53,-0.114 0.183,0.138 1.758,1.659 3.5,3.38 1.742,1.721 3.352,3.255 3.579,3.41 0.369,0.252 1.078,0.282 6.819,0.282 h 6.407 l 2.139,2.116 c 2.521,2.495 2.399,2.063 0.996,3.526 -1.338,1.395 -1.456,1.417 -2.489,0.478 -0.431,-0.393 -0.91,-0.81 -1.064,-0.928 -0.245,-0.187 -0.577,0.081 -2.689,2.172 -1.325,1.312 -4.462,4.404 -6.97,6.871 -7.297,7.176 -18.645,18.492 -18.645,18.592 0,0.051 1.749,1.839 3.885,3.974 l 3.886,3.883 12.489,-12.575 c 6.87,-6.916 12.953,-12.959 13.519,-13.429 l 1.029,-0.854 0.971,0.815 c 0.534,0.449 1.553,1.417 2.263,2.151 l 1.292,1.336 v 10.645 10.644 l -3.061,3.083 -3.06,3.083 -0.106,3.417 c -0.058,1.879 -0.106,4.373 -0.106,5.541 0,1.169 -0.051,2.125 -0.112,2.125 -0.061,0 -0.811,-0.393 -1.667,-0.875 -1.782,-1.002 -1.685,-0.748 -1.316,-3.456 0.131,-0.963 0.405,-3.027 0.609,-4.585 l 0.371,-2.834 3.057,-3.089 3.057,-3.088 V 115.453 112 h -0.416 c -0.229,0 -0.473,0 -0.542,-0.001 -0.069,0 -0.162,1.448 -0.208,3.219 l -0.084,3.22 -2.138,2.114 c -2.291,2.266 -2.513,2.413 -2.365,1.573 0.129,-0.732 0.511,-3.285 1.004,-6.708 0.224,-1.559 0.518,-3.509 0.652,-4.334 0.504,-3.086 0.509,-3.342 0.077,-3.645 -1.059,-0.742 -1.856,-0.2 -2.053,1.395 -0.143,1.156 -0.262,1.957 -0.902,6.084 -0.284,1.833 -0.632,4.083 -0.774,5 -0.378,2.45 -1.018,7.32 -1.326,10.083 -0.372,3.341 -0.428,3.667 -0.637,3.667 -0.207,0 -2.489,-1.266 -5.704,-3.165 -1.192,-0.703 -2.955,-1.69 -3.917,-2.193 -0.963,-0.503 -2.696,-1.453 -3.853,-2.112 -1.322,-0.752 -2.29,-1.197 -2.604,-1.197 -0.316,0 -0.953,-0.295 -1.73,-0.802 -0.676,-0.441 -2.205,-1.387 -3.396,-2.104 -4.408,-2.65 -4.932,-3.184 -6.092,-6.206 -0.204,-0.53 -3.332,-3.888 -3.622,-3.888 -0.403,0 -0.187,4.76 0.275,6.056 1.227,3.44 2.824,4.847 9.751,8.591 0.47,0.254 1.567,0.863 2.438,1.353 0.87,0.491 1.92,1.073 2.333,1.294 0.412,0.221 1.125,0.611 1.583,0.867 0.459,0.256 3.046,1.684 5.75,3.175 4.956,2.731 10.149,5.648 12.917,7.254 1.705,0.989 1.355,0.793 6.667,3.748 10.373,5.772 11.475,6.156 15.005,5.237 0.793,-0.207 5.288,-2.386 5.995,-2.907 0.091,-0.067 0.729,-0.423 1.416,-0.79 2.016,-1.077 3.208,-1.741 3.872,-2.156 0.342,-0.214 0.657,-0.389 0.701,-0.389 0.044,0 0.443,-0.214 0.887,-0.476 0.853,-0.503 1.034,-0.605 4.457,-2.527 1.192,-0.669 2.392,-1.342 2.667,-1.497 0.275,-0.154 1.85,-1.034 3.5,-1.955 6.346,-3.543 7.027,-3.928 7.938,-4.478 0.516,-0.312 0.979,-0.567 1.028,-0.567 0.049,0 0.648,-0.33 1.331,-0.734 0.683,-0.404 1.796,-1.018 2.472,-1.364 0.677,-0.347 1.493,-0.793 1.814,-0.991 0.321,-0.198 1.071,-0.624 1.667,-0.946 0.595,-0.322 1.345,-0.736 1.666,-0.919 7.746,-4.428 7.709,-4.402 9.102,-6.501 1.191,-1.795 1.581,-3.37 1.528,-6.175 l -0.046,-2.422 -1.624,1.651 c -1.907,1.94 -1.917,1.954 -2.548,3.554 -0.739,1.876 -1.547,2.648 -4.73,4.518 -1.478,0.869 -3.363,2.011 -4.189,2.538 -0.826,0.527 -1.669,0.959 -1.872,0.961 -0.204,0.002 -0.746,0.212 -1.204,0.468 -0.458,0.256 -2.183,1.203 -3.833,2.104 -1.65,0.901 -3.413,1.884 -3.917,2.184 -2.303,1.369 -6.897,3.899 -6.962,3.834 -0.04,-0.039 -0.324,-2.045 -0.633,-4.457 -0.308,-2.412 -0.643,-4.911 -0.744,-5.553 -0.1,-0.641 -0.289,-1.841 -0.419,-2.666 -0.13,-0.825 -0.43,-2.7 -0.668,-4.167 -0.238,-1.467 -0.643,-4.099 -0.901,-5.85 -0.556,-3.781 -0.631,-3.976 -1.476,-3.818 -1.483,0.278 -1.456,-0.076 -0.452,6.085 0.127,0.779 0.353,2.279 0.503,3.333 0.15,1.054 0.377,2.592 0.505,3.417 0.553,3.558 0.764,3.444 -1.812,0.981 -2.605,-2.492 -2.428,-2.079 -2.435,-5.669 l -0.006,-3.021 -0.531,-0.106 c -0.797,-0.159 -0.808,-0.102 -0.697,3.572 l 0.103,3.409 3.054,3 3.054,3 0.257,1.75 c 0.926,6.312 1.052,8.131 0.586,8.458 -0.774,0.542 -2.857,1.567 -2.965,1.459 -0.061,-0.061 -0.148,-2.492 -0.194,-5.402 l -0.084,-5.292 -0.494,-0.653 c -0.272,-0.359 -1.639,-1.796 -3.038,-3.193 l -2.544,-2.541 -0.057,-10.376 c -0.031,-5.707 -0.004,-10.616 0.061,-10.909 0.105,-0.479 3.753,-4.384 4.096,-4.384 0.414,0 3.926,3.387 14.774,14.248 6.822,6.83 12.461,12.419 12.533,12.419 0.189,0 6.346,-6.111 7.088,-7.035 l 0.63,-0.785 -7.524,-7.498 c -4.139,-4.124 -9.325,-9.245 -11.525,-11.38 -2.2,-2.135 -5.122,-4.988 -6.494,-6.342 -1.371,-1.353 -2.523,-2.46 -2.558,-2.46 -0.036,0 -0.597,0.458 -1.246,1.019 l -1.181,1.019 -0.923,-0.978 c -8.424,-8.927 -10.54,-10.755 -12.659,-10.94 -1.311,-0.114 -1.387,-0.189 -1.323,-1.305 l 0.051,-0.899 h 2.539 2.538 l 1.545,1.525 c 2.287,2.257 1.179,2.059 11.495,2.054 8.057,-0.004 8.939,-0.031 9.49,-0.291 0.528,-0.25 3.581,-3.122 10.963,-10.313 l 1.908,-1.859 0.098,-1.391 c 0.089,-1.282 0.146,-1.454 0.719,-2.196 0.977,-1.264 0.674,-2.55 -0.698,-2.961 -1.929,-0.578 -3.194,1.507 -1.836,3.027 0.526,0.59 0.762,1.625 0.57,2.501 -0.13,0.59 -1.011,1.509 -8.108,8.459 L 233.53,75.5 h -8.958 -8.957 l -0.543,-0.414 c -0.625,-0.477 -0.615,-0.468 -2.188,-1.961 L 211.699,72 h -2.038 c -3.616,0 -3.569,0.05 -3.463,-3.716 0.083,-2.936 0.076,-2.916 1.705,-4.644 3.267,-3.466 7.167,-7.473 7.273,-7.473 0.231,0 2.657,2.456 2.657,2.689 0,0.129 -0.605,0.833 -1.345,1.565 -1.775,1.755 -1.714,1.599 -1.825,4.606 l -0.097,2.61 -0.617,0.682 c -1.548,1.714 0.062,4.052 2.116,3.073 1.267,-0.605 1.419,-2.077 0.329,-3.199 l -0.584,-0.602 0.053,-2.35 0.054,-2.35 1.333,-1.511 c 0.733,-0.831 1.462,-1.538 1.619,-1.571 0.158,-0.032 0.683,-0.526 1.167,-1.097 0.484,-0.57 1.661,-1.883 2.615,-2.916 1.685,-1.827 2.503,-2.697 6.173,-6.568 0.968,-1.02 1.947,-2.07 2.177,-2.333 0.793,-0.908 3.368,-3.651 5.223,-5.562 1.022,-1.054 2.947,-3.078 4.276,-4.498 1.329,-1.42 2.679,-2.854 3,-3.187 0.321,-0.333 0.703,-0.746 0.849,-0.918 0.145,-0.172 0.708,-0.735 1.25,-1.25 1.239,-1.179 3.633,-3.788 3.706,-4.04 0.031,-0.105 0.362,-0.465 0.736,-0.801 l 0.68,-0.611 -1.054,-1.098 c -0.579,-0.603 -1.149,-1.097 -1.266,-1.097 -0.116,0 -0.257,-0.143 -0.313,-0.317 -0.055,-0.175 -0.791,-0.968 -1.636,-1.763 -0.844,-0.794 -2.156,-2.051 -2.914,-2.791 l -1.378,-1.347 -0.4,0.376 c -0.22,0.206 -0.486,0.583 -0.591,0.837 -0.105,0.253 -0.374,0.558 -0.597,0.678 -0.223,0.119 -0.405,0.269 -0.405,0.334 0,0.064 -0.657,0.796 -1.459,1.627 -0.802,0.83 -1.623,1.684 -1.824,1.897 -0.202,0.212 -1.362,1.398 -2.579,2.636 -1.218,1.238 -2.928,2.987 -3.801,3.889 -0.873,0.901 -2.104,2.138 -2.736,2.75 -0.632,0.611 -2.214,2.161 -3.517,3.444 -1.303,1.284 -2.548,2.491 -2.768,2.683 -0.22,0.193 -1.043,1.018 -1.829,1.834 -0.787,0.816 -1.724,1.749 -2.084,2.074 -0.359,0.324 -1.028,0.999 -1.487,1.5 -0.964,1.053 -5.829,5.678 -6.18,5.876 -0.449,0.253 -0.23,0.589 1.398,2.141 0.899,0.858 1.691,1.653 1.76,1.767 0.137,0.228 -0.518,0.951 -5.624,6.209 -4.233,4.359 -3.933,3.602 -3.935,9.947 -0.002,5.6 0.042,5.402 -1.144,5.141 l -0.469,-0.103 -0.196,-2.451 c -0.108,-1.348 -0.196,-5.245 -0.195,-8.659 l 0.002,-6.209 h -0.5 -0.5 l -0.015,7.875 c -0.017,9.581 -0.012,9.524 -0.872,9.594 -1.136,0.094 -1.113,0.198 -1.113,-5.135 0,-6.503 0.598,-5.259 -5.505,-11.444 -2.381,-2.413 -4.328,-4.453 -4.328,-4.534 0,-0.081 0.787,-0.899 1.75,-1.817 2.028,-1.934 2.025,-1.924 0.875,-2.881 -1.232,-1.025 -2.559,-2.288 -4.607,-4.383 -0.973,-0.995 -2.961,-2.983 -4.419,-4.417 -1.458,-1.434 -3.548,-3.508 -4.644,-4.608 -1.096,-1.1 -2.041,-1.987 -2.099,-1.972 -0.059,0.015 -0.444,-0.376 -0.856,-0.868 -0.413,-0.493 -2.325,-2.506 -4.25,-4.475 -2.974,-3.041 -5.416,-5.592 -6.319,-6.601 -0.123,-0.138 -0.476,-0.481 -0.786,-0.762 -0.597,-0.543 -2.388,-2.514 -2.981,-3.28 -0.196,-0.252 -0.419,-0.458 -0.497,-0.458 -0.078,0 -0.388,0.206 -0.69,0.458 m 1.551,1.817 c 0.169,0.153 0.306,0.506 0.307,0.792 10e-4,0.421 0.258,0.778 1.387,1.933 0.761,0.779 1.961,2.038 2.664,2.798 l 1.28,1.382 v 1.302 c 0,2.064 0.312,2.41 2.273,2.518 1.791,0.098 1.374,-0.19 4.937,3.416 3.07,3.107 3.045,3.065 2.882,4.804 -0.13,1.388 -0.27,1.708 -0.677,1.552 -0.284,-0.109 -0.278,-0.941 0.016,-2.452 0.094,-0.484 -0.514,-1.212 -3.916,-4.695 l -1.914,-1.959 h -1.291 c -2.258,0 -2.976,-0.685 -2.976,-2.839 v -1.35 l -2.61,-2.655 c -2.317,-2.357 -2.672,-2.656 -3.156,-2.656 -1.059,0 -1.469,-1.31 -0.613,-1.958 0.385,-0.291 1.046,-0.26 1.407,0.067 m 81.928,-0.067 c 0.615,0.781 0.128,1.907 -0.873,2.017 -0.387,0.043 -0.975,0.54 -2.612,2.207 -2.889,2.943 -2.803,2.816 -2.813,4.177 -0.015,2.228 -0.854,3.057 -3.09,3.057 h -1.383 l -2.405,2.459 c -3.789,3.873 -3.77,3.841 -3.252,5.571 0.165,0.549 0.154,0.693 -0.067,0.914 -0.495,0.495 -0.584,0.266 -0.904,-2.306 l -0.097,-0.78 3.246,-3.262 3.246,-3.262 h 1.498 c 1.923,0 2.01,-0.085 2.226,-2.18 0.192,-1.852 0.054,-1.637 2.973,-4.654 1.851,-1.912 2.34,-2.513 2.345,-2.881 0.013,-1.048 1.39,-1.804 1.962,-1.077 m -82.932,0.679 c -0.151,0.183 -0.139,0.282 0.055,0.443 0.204,0.169 0.27,0.156 0.357,-0.073 0.15,-0.389 -0.163,-0.67 -0.412,-0.37 m 39.559,1.344 c -0.092,0.034 -0.504,0.157 -0.917,0.274 -0.997,0.282 -3.079,1.259 -3.946,1.852 -0.384,0.262 -0.738,0.476 -0.788,0.476 -0.05,0 -1.011,0.551 -2.136,1.224 -1.126,0.673 -2.121,1.254 -2.213,1.291 -0.958,0.39 -6.966,4.023 -7.039,4.256 -0.032,0.104 0.493,0.773 1.166,1.487 l 1.225,1.299 2.241,-1.288 c 1.232,-0.708 2.353,-1.356 2.49,-1.439 1.178,-0.718 5.389,-3.194 5.917,-3.479 0.367,-0.199 1.004,-0.554 1.417,-0.791 2.185,-1.252 2.339,-1.304 4.052,-1.366 1.693,-0.061 1.945,-0.007 3.531,0.763 0.923,0.448 1.192,0.601 2.167,1.23 0.366,0.236 1.188,0.716 1.826,1.066 1.027,0.564 5.436,3.16 6.09,3.586 0.138,0.09 0.363,0.214 0.5,0.277 0.138,0.063 0.675,0.363 1.195,0.666 0.52,0.303 1.051,0.551 1.18,0.551 0.291,0 2.711,-2.469 2.565,-2.616 -0.122,-0.121 -4.217,-2.559 -6.384,-3.8 -0.8,-0.459 -1.796,-1.029 -2.214,-1.268 -1.384,-0.792 -4.083,-2.36 -4.675,-2.715 -1.895,-1.139 -2.93,-1.444 -5.167,-1.526 -1.054,-0.039 -1.991,-0.043 -2.083,-0.01 m -41.583,0.935 c 0.183,0.184 0.333,0.537 0.333,0.786 0,0.988 1.225,1.881 2.581,1.881 h 1.179 l 1.026,1.042 c 1.018,1.033 1.026,1.05 1.139,2.225 l 0.113,1.185 1.194,1.274 1.195,1.274 h 1.079 c 1.842,0 2.408,0.29 3.072,1.571 0.18,0.348 0.687,0.977 1.125,1.397 0.438,0.42 0.797,0.904 0.797,1.076 0,0.469 -2.319,-1.661 -2.443,-2.244 -0.184,-0.866 -1.17,-1.297 -2.97,-1.299 L 166.09,33 164.628,31.545 163.167,30.09 v -1.094 c 0,-1.278 -0.841,-2.427 -1.625,-2.222 -0.252,0.066 -0.404,0.011 -0.474,-0.172 -0.075,-0.194 -0.32,-0.269 -0.882,-0.269 -0.824,0 -1.205,-0.194 -2.186,-1.117 -0.321,-0.302 -0.682,-0.512 -0.802,-0.467 -0.358,0.134 -1.185,-0.391 -1.293,-0.82 -0.273,-1.088 0.986,-1.871 1.762,-1.096 m 87.875,-0.101 c 0.781,0.593 0.041,2.293 -0.892,2.049 -0.218,-0.057 -0.572,0.169 -1.15,0.735 -0.772,0.756 -0.897,0.817 -1.658,0.817 -0.452,0 -0.872,0.081 -0.934,0.181 -0.061,0.099 -0.282,0.137 -0.491,0.084 -0.741,-0.186 -1.583,1.025 -1.585,2.277 l -0.002,1.042 -1.498,1.541 -1.498,1.542 h -1.407 c -1.721,0 -2.594,0.392 -2.594,1.163 0,0.342 -0.164,0.588 -0.625,0.933 -0.343,0.257 -0.863,0.716 -1.155,1.019 -0.574,0.597 -0.72,0.666 -0.719,0.343 0.001,-0.114 0.402,-0.621 0.893,-1.125 0.49,-0.504 0.98,-1.179 1.087,-1.5 0.316,-0.941 0.861,-1.216 2.678,-1.352 0.875,-0.066 1.595,-0.126 1.599,-0.133 0.004,-0.008 0.49,-0.553 1.08,-1.212 1.053,-1.176 1.074,-1.218 1.178,-2.361 l 0.107,-1.164 1.087,-1.056 1.087,-1.055 h 1.029 c 1.461,0 2.822,-0.932 2.709,-1.854 -0.103,-0.841 0.986,-1.436 1.674,-0.914 M 156.5,23.583 c 0,0.139 0.148,0.25 0.333,0.25 0.186,0 0.334,-0.111 0.334,-0.25 0,-0.139 -0.148,-0.25 -0.334,-0.25 -0.185,0 -0.333,0.111 -0.333,0.25 m 88.196,0.028 c 0.081,0.418 0.471,0.476 0.471,0.07 0,-0.205 -0.108,-0.348 -0.263,-0.348 -0.155,0 -0.24,0.114 -0.208,0.278 m 3.446,1.823 c 1.016,0.713 0.238,2.63 -0.806,1.984 -0.104,-0.064 -0.771,0.52 -1.551,1.357 -1.616,1.735 -4.877,5.132 -7.779,8.103 -1.144,1.171 -2.23,2.444 -2.417,2.833 -0.622,1.294 -2.374,0.78 -2.029,-0.595 0.162,-0.644 0.839,-1.049 1.359,-0.812 0.383,0.175 0.607,-0.021 4.208,-3.685 7.647,-7.78 7.533,-7.656 7.536,-8.213 0.006,-0.961 0.774,-1.465 1.479,-0.972 m -93.151,0.342 c 0.204,0.26 0.308,0.569 0.252,0.747 -0.067,0.209 0.101,0.501 0.538,0.936 0.35,0.347 1.455,1.492 2.457,2.545 6.747,7.088 8.167,8.44 8.79,8.367 1.033,-0.12 1.658,1.021 0.966,1.764 -0.627,0.672 -1.827,0.277 -1.827,-0.601 0,-0.35 -0.409,-0.849 -1.875,-2.287 -1.635,-1.604 -3.377,-3.408 -8.376,-8.674 -0.896,-0.945 -1.246,-1.209 -1.506,-1.141 -0.452,0.118 -1.243,-0.516 -1.243,-0.996 0,-0.987 1.22,-1.428 1.824,-0.66 m -1.099,0.479 c -0.122,0.318 0.212,0.592 0.559,0.459 0.315,-0.121 0.198,-0.613 -0.162,-0.683 -0.159,-0.03 -0.338,0.07 -0.397,0.224 m 93.441,0.066 c 0,0.239 0.107,0.346 0.346,0.346 0.427,0 0.379,-0.552 -0.056,-0.636 -0.2,-0.038 -0.29,0.052 -0.29,0.29 m -4.957,2.034 C 242.91,29.073 242.409,30 241.488,30 241.22,30 241,30.076 241,30.17 c 0,0.481 -5.959,6.163 -6.464,6.163 -0.561,0 -1.203,-0.634 -1.203,-1.189 0,-0.806 1.467,-1.321 2.064,-0.724 0.227,0.228 0.434,0.075 1.979,-1.458 2.759,-2.737 3.124,-3.189 3.124,-3.862 0,-1.172 1.204,-1.649 1.876,-0.745 m -81.413,-0.096 c 0.256,0.18 0.37,0.43 0.37,0.811 0,0.625 0.268,1.016 1.827,2.671 2.281,2.42 2.987,2.955 3.424,2.592 0.797,-0.661 2.121,0.272 1.754,1.237 -0.331,0.871 -2.171,0.888 -2.171,0.02 0,-0.136 -0.208,-0.355 -0.462,-0.487 -0.253,-0.131 -1.519,-1.333 -2.811,-2.671 C 161.341,30.825 160.425,30 160.195,30 c -0.192,0 -0.502,-0.164 -0.689,-0.365 -0.917,-0.985 0.331,-2.164 1.457,-1.376 m -1.031,0.55 c -0.048,0.078 0.007,0.272 0.124,0.431 0.24,0.329 0.747,-0.051 0.532,-0.399 -0.13,-0.21 -0.534,-0.23 -0.656,-0.032 m 81.401,0.274 c 0,0.281 0.031,0.292 0.402,0.15 0.306,-0.118 0.191,-0.4 -0.162,-0.4 -0.132,0 -0.24,0.113 -0.24,0.25 m -41.285,1.216 c -1.276,0.609 -1.362,2.057 -0.196,3.291 l 0.478,0.506 0.044,8.16 0.043,8.161 0.397,0.056 c 0.664,0.094 0.681,-0.118 0.683,-8.354 l 0.003,-7.963 0.575,-0.575 c 1.775,-1.775 0.19,-4.341 -2.027,-3.282 m 1.463,0.874 c 0.497,0.265 0.439,1.243 -0.094,1.592 -0.871,0.571 -1.695,-0.664 -0.975,-1.46 0.313,-0.346 0.603,-0.382 1.069,-0.132 m -9.21,2.834 c -0.728,0.728 -0.643,2.256 0.169,3.014 0.401,0.375 0.53,0.638 0.53,1.082 0,0.843 0.189,1.124 2.021,2.998 l 1.646,1.684 v 4.774 4.774 h 0.5 0.5 v -4.975 -4.975 l -0.481,-0.65 c -0.265,-0.357 -0.908,-1.062 -1.43,-1.566 -1.602,-1.549 -1.763,-2.191 -0.841,-3.352 1.616,-2.032 -0.797,-4.625 -2.614,-2.808 m 14.927,-0.212 c -1.002,0.812 -0.992,2.093 0.026,3.11 0.881,0.882 0.537,1.741 -1.566,3.906 l -1.355,1.395 v 5.035 5.035 l 0.5,-0.074 0.5,-0.073 v -4.49 c 0,-5.222 -0.11,-4.818 1.835,-6.722 1.409,-1.379 1.832,-2.05 1.832,-2.903 0,-0.328 0.163,-0.656 0.48,-0.964 1.799,-1.752 -0.322,-4.818 -2.252,-3.255 m 1.614,0.793 c 0.849,0.439 0.622,1.745 -0.303,1.745 -1.034,0 -1.484,-1.169 -0.669,-1.74 0.449,-0.315 0.374,-0.314 0.972,-0.005 m -14.604,0.174 c 0.618,0.618 0.221,1.571 -0.655,1.571 -0.623,0 -0.916,-0.259 -0.916,-0.812 0,-0.858 0.992,-1.338 1.571,-0.759 M 166.917,35 c -0.154,0.249 0.06,0.5 0.426,0.5 0.213,0 0.324,-0.114 0.324,-0.333 0,-0.354 -0.558,-0.478 -0.75,-0.167 m 67.156,0.016 c -0.062,0.1 0.005,0.3 0.149,0.444 0.311,0.311 0.821,0.014 0.667,-0.389 -0.108,-0.28 -0.654,-0.317 -0.816,-0.055 m -55.125,4.013 c 0.404,0.38 0.511,1.112 0.208,1.415 -0.126,0.126 0.015,0.255 0.482,0.442 0.471,0.188 1.821,1.435 4.719,4.356 3.375,3.402 4.138,4.092 4.526,4.092 1.027,-0.001 1.574,1.197 0.818,1.791 -0.612,0.481 -1.618,-0.08 -1.618,-0.903 0,-0.515 -8.103,-8.722 -8.612,-8.722 -0.132,0 -0.386,-0.11 -0.564,-0.245 -0.178,-0.134 -0.458,-0.247 -0.623,-0.25 -0.164,-0.003 -0.483,-0.189 -0.708,-0.414 -1.02,-1.02 0.322,-2.548 1.372,-1.562 M 224.333,39 c 0.853,0.853 0.058,1.888 -1.69,2.201 -0.715,0.128 -8.81,8.435 -8.81,9.04 0,0.439 -0.103,0.652 -0.415,0.857 -0.85,0.557 -1.787,-0.211 -1.423,-1.167 0.147,-0.388 0.269,-0.457 1.172,-0.661 0.257,-0.058 1.933,-1.655 4.379,-4.173 2.717,-2.797 4.141,-4.143 4.534,-4.285 0.553,-0.2 0.569,-0.23 0.476,-0.903 -0.15,-1.095 1.002,-1.684 1.777,-0.909 m -57.5,0.322 c 0,0.259 0.107,0.345 0.429,0.345 0.547,0 0.499,-0.558 -0.055,-0.637 -0.284,-0.04 -0.374,0.03 -0.374,0.292 m 67.435,-0.058 c -0.15,0.39 -0.139,0.403 0.333,0.403 0.328,0 0.41,-0.065 0.333,-0.264 -0.055,-0.145 -0.101,-0.295 -0.101,-0.333 0,-0.197 -0.478,-0.033 -0.565,0.194 m -56.355,0.408 c -0.064,0.105 -0.039,0.269 0.057,0.365 0.224,0.224 0.746,0.028 0.655,-0.245 -0.093,-0.279 -0.564,-0.358 -0.712,-0.12 m 45.319,0.092 c 0.056,0.145 0.101,0.295 0.101,0.333 0,0.182 0.475,0.041 0.554,-0.164 0.114,-0.297 -0.022,-0.433 -0.433,-0.433 -0.226,0 -0.293,0.079 -0.222,0.264 m -52.792,0.321 c 0.053,0.138 -0.024,0.435 -0.172,0.66 -0.345,0.527 -0.343,1.717 0.005,2.957 0.151,0.536 0.229,1.018 0.174,1.073 -0.24,0.24 -0.61,-0.148 -0.772,-0.808 -0.096,-0.394 -0.25,-0.947 -0.342,-1.229 -0.418,-1.284 0.65,-3.844 1.107,-2.653 m 62.145,1.09 c 0.248,1.127 -0.693,4.053 -1.175,3.653 -0.157,-0.13 -0.188,-0.289 -0.092,-0.471 0.08,-0.15 0.233,-0.724 0.341,-1.274 0.109,-0.55 0.231,-1.119 0.272,-1.264 0.041,-0.146 -0.117,-0.547 -0.351,-0.892 -0.34,-0.5 -0.386,-0.676 -0.227,-0.867 0.26,-0.314 1.082,0.43 1.232,1.115 m -2.697,2.612 c -0.15,2.283 -0.213,2.351 -2.178,2.359 l -1.46,0.006 -2.913,2.966 c -4.11,4.183 -5.842,5.777 -6.051,5.568 -0.175,-0.175 2.745,-3.339 6.704,-7.269 l 1.848,-1.834 1.622,-0.083 1.623,-0.083 -0.008,-1.584 c -0.009,-1.671 0.15,-2.061 0.615,-1.503 0.212,0.255 0.256,0.576 0.198,1.457 m -57.145,-1.162 c -0.628,2.232 -0.149,3.042 1.801,3.042 h 1.503 l 2.185,2.224 c 5.622,5.722 6.435,6.575 6.435,6.752 0,0.666 -1.139,-0.311 -5.053,-4.338 l -3.929,-4.042 -1.606,-0.09 c -1.862,-0.104 -1.98,-0.191 -2.154,-1.582 -0.1,-0.799 -0.004,-1.959 0.19,-2.299 0.223,-0.39 0.753,-0.109 0.628,0.333 m 9.46,3.583 c 3.832,3.896 5.43,5.727 5.197,5.955 -0.181,0.178 -0.517,-0.063 -1.041,-0.746 -0.211,-0.275 -2.141,-2.273 -4.288,-4.44 -2.147,-2.167 -3.904,-4.023 -3.904,-4.125 0,-0.579 0.907,0.175 4.036,3.356 M 223.5,42.813 c 0,0.219 -1.88,2.247 -5.218,5.627 -1.642,1.663 -3.126,3.238 -3.297,3.5 -0.342,0.521 -0.735,0.633 -0.735,0.209 0,-0.314 0.547,-0.94 4.135,-4.732 4.213,-4.452 5.115,-5.264 5.115,-4.604 m 4.057,1.977 c -0.643,0.47 -0.95,0.145 -0.433,-0.459 0.275,-0.322 0.302,-0.324 0.506,-0.046 0.18,0.247 0.169,0.328 -0.073,0.505 m -52.72,-0.165 c 0.322,0.408 0.331,0.465 0.081,0.515 -0.277,0.056 -1.085,-0.567 -1.085,-0.836 0,-0.317 0.67,-0.103 1.004,0.321 m -16.223,1.543 c -0.798,0.458 -1.482,0.832 -1.519,0.832 -0.037,0 -0.843,0.458 -1.79,1.017 -0.947,0.56 -2.134,1.244 -2.638,1.52 -5.306,2.906 -6.619,6.434 -6.088,16.357 l 0.122,2.273 h 1.715 c 2.114,0 1.917,0.51 1.917,-4.983 0,-8.146 0.029,-8.187 9.5,-13.432 0.963,-0.533 1.989,-1.124 2.281,-1.315 l 0.531,-0.345 -0.614,-0.753 c -0.617,-0.755 -0.794,-0.94 -1.554,-1.629 l -0.412,-0.374 -1.451,0.832 m 81.751,0.617 -1.169,1.285 1.444,0.875 c 0.794,0.482 1.537,0.879 1.652,0.882 0.114,0.004 0.208,0.081 0.208,0.173 0,0.092 0.083,0.167 0.185,0.167 0.102,0 0.796,0.367 1.542,0.816 2.207,1.328 2.479,1.484 3.44,1.968 3.269,1.649 4.006,3.535 4.011,10.263 0.004,5.483 -0.202,4.953 1.923,4.953 h 1.732 v -4.843 c 0,-8.327 -1.014,-10.803 -5.496,-13.417 -0.778,-0.453 -1.565,-0.914 -1.75,-1.025 -0.185,-0.11 -0.49,-0.272 -0.678,-0.358 -0.188,-0.086 -1.034,-0.577 -1.881,-1.09 -0.847,-0.514 -1.585,-0.934 -1.64,-0.934 -0.056,0 -0.467,-0.225 -0.914,-0.5 -1.147,-0.706 -1.291,-0.663 -2.609,0.785 m -63.08,3.414 c 1.654,1.678 3.472,3.553 4.04,4.166 0.668,0.72 1.12,1.082 1.279,1.021 0.695,-0.267 1.296,1.04 0.803,1.744 -0.571,0.815 -1.783,0.189 -1.711,-0.885 0.042,-0.624 0.117,-0.529 -2.529,-3.231 -0.688,-0.702 -2.252,-2.299 -3.476,-3.55 -1.229,-1.256 -2.176,-2.354 -2.115,-2.453 0.194,-0.313 0.612,0.047 3.709,3.188 m 50.81,-3.014 c 0.065,0.106 -0.763,1.077 -1.957,2.292 -5.418,5.511 -6.138,6.319 -6.138,6.881 0,1.084 -1.015,1.515 -1.655,0.703 -0.557,-0.708 0.02,-1.889 0.821,-1.68 0.235,0.062 0.785,-0.422 2.199,-1.935 2.431,-2.602 6.292,-6.446 6.474,-6.446 0.078,0 0.193,0.083 0.256,0.185 m -39.368,2.897 c -0.145,0.379 0.28,0.787 0.606,0.583 0.19,-0.118 0.207,-0.224 0.072,-0.442 -0.252,-0.404 -0.553,-0.466 -0.678,-0.141 m 23.884,-0.138 c -0.201,0.201 -0.116,0.685 0.136,0.782 0.275,0.105 0.665,-0.464 0.501,-0.729 -0.116,-0.187 -0.473,-0.217 -0.637,-0.053 m 26.773,4.116 c -0.56,0.513 -0.613,0.64 -0.627,1.496 -0.015,0.89 -0.057,0.98 -0.907,1.898 -1.305,1.409 -1.35,1.574 -1.35,4.974 0,3.671 0.132,3.389 -3.05,6.516 C 229.955,72.378 231.057,72 224.546,72 H 219 v 0.5 0.5 l 5.708,-0.008 c 6.831,-0.009 5.886,0.308 9.392,-3.15 3.522,-3.474 3.392,-3.198 3.396,-7.202 l 0.004,-3.11 0.659,-0.833 c 0.871,-1.103 1.276,-1.364 2.117,-1.364 0.986,0 1.505,-0.239 1.89,-0.871 1.148,-1.883 -1.167,-3.882 -2.782,-2.402 m -77.481,0.626 c 0.891,0.701 0.066,1.991 -0.971,1.518 -0.579,-0.264 -0.616,-1.223 -0.062,-1.611 0.473,-0.331 0.497,-0.329 1.033,0.093 m 79.344,0.085 c 0.404,0.404 0.261,1.198 -0.273,1.52 -0.646,0.39 -1.307,-0.05 -1.307,-0.87 0,-0.855 0.975,-1.256 1.58,-0.65 m -58.85,1.471 c -0.118,0.306 0.053,0.591 0.353,0.591 0.306,0 0.441,-0.242 0.316,-0.568 -0.127,-0.331 -0.545,-0.346 -0.669,-0.023 m 36.37,0.023 c -0.184,0.48 0.107,0.696 0.556,0.412 0.198,-0.126 0.202,-0.197 0.021,-0.414 -0.277,-0.334 -0.448,-0.333 -0.577,0.002 m -64.1,1.447 c -1.102,0.548 -1.193,2.265 -0.168,3.177 0.478,0.427 0.501,0.508 0.501,1.782 v 1.336 l 0.875,0.873 c 0.481,0.48 2.15,2.103 3.708,3.608 1.559,1.505 3.959,3.844 5.334,5.199 1.491,1.469 2.75,2.567 3.119,2.721 0.938,0.391 14.144,0.388 14.535,-0.003 0.848,-0.847 0.401,-0.901 -7.541,-0.903 l -6.553,-0.002 -3.191,-3.042 c -6.663,-6.352 -8.89,-8.673 -9.008,-9.39 -0.192,-1.159 -0.126,-1.54 0.364,-2.104 1.675,-1.928 0.21,-4.339 -1.975,-3.252 m 14.564,-0.049 c -1.093,0.442 -1.604,3.17 -0.594,3.17 0.463,0 0.863,0.721 0.863,1.553 0,0.979 0.16,1.275 1.364,2.531 0.735,0.766 0.799,0.9 0.801,1.666 0.003,1.013 0.468,1.86 1.108,2.021 0.563,0.141 0.507,0.14 6.185,0.098 l 4.709,-0.035 v -0.5 -0.5 h -3.82 c -4.439,0 -4.347,0.018 -4.347,-0.868 0,-1.052 -0.839,-1.799 -2.021,-1.799 -1.998,0 -3.607,-2.843 -2.311,-4.084 1.605,-1.538 0.095,-4.074 -1.937,-3.253 m 61.813,0.11 c -1.289,0.636 -1.374,2.122 -0.186,3.27 0.869,0.84 0.651,1.781 -0.751,3.249 -0.638,0.668 -0.729,0.708 -1.611,0.708 -1.168,0 -1.833,0.572 -1.985,1.707 l -0.094,0.71 -3.709,0.045 -3.708,0.044 v 0.567 0.567 l 4.875,0.064 c 6.051,0.08 6.819,-0.18 6.516,-2.208 -0.081,-0.538 0.003,-0.689 1.01,-1.812 1.094,-1.22 1.099,-1.23 1.099,-2.218 0,-0.886 0.055,-1.046 0.515,-1.506 1.676,-1.676 0.108,-4.211 -1.971,-3.187 m -74.909,0.9 c 0.483,0.45 0.47,1.084 -0.029,1.411 -0.938,0.614 -1.922,-0.608 -1.164,-1.446 0.36,-0.397 0.742,-0.386 1.193,0.035 m 14.5,0 c 0.454,0.423 0.465,0.893 0.032,1.327 -0.65,0.65 -1.5,0.303 -1.5,-0.612 0,-0.978 0.779,-1.357 1.468,-0.715 m 61.828,-0.08 c 0.748,0.524 0.345,1.722 -0.584,1.735 -0.807,0.012 -1.089,-1.253 -0.396,-1.78 0.356,-0.272 0.539,-0.264 0.98,0.045 m 14.119,-0.154 c 0.676,0.259 0.627,1.586 -0.066,1.806 -0.824,0.262 -1.451,-0.728 -0.947,-1.496 0.277,-0.424 0.522,-0.498 1.013,-0.31 M 229,66.167 c 0.748,0.747 0.025,1.915 -0.97,1.566 -0.713,-0.251 -0.708,-1.349 0.008,-1.695 0.529,-0.255 0.586,-0.247 0.962,0.129 m -54.822,0.006 c 0.506,0.27 0.443,1.279 -0.095,1.524 -0.91,0.415 -1.812,-0.65 -1.16,-1.37 0.327,-0.362 0.766,-0.416 1.255,-0.154 m 41.622,2.86 c 0.447,0.447 0.029,1.634 -0.576,1.634 -0.332,0 -0.891,-0.62 -0.891,-0.988 0,-0.686 0.991,-1.122 1.467,-0.646 m 36.752,1.625 c -0.292,0.178 -0.613,0.478 -0.714,0.666 -0.176,0.33 -0.328,0.343 -3.969,0.356 -5.143,0.018 -4.479,-0.276 -8.719,3.862 L 235.605,79 h -5.636 -5.636 v 0.583 0.584 h 5.86 5.86 l 3.52,-3.509 c 1.936,-1.93 3.63,-3.579 3.765,-3.664 0.583,-0.369 8.288,-0.192 8.56,0.197 1.451,2.071 4.509,0.379 3.353,-1.856 -0.523,-1.012 -1.675,-1.301 -2.699,-0.677 m -103.314,1.229 c 0.238,0.666 -0.108,1.28 -0.723,1.28 -0.66,0 -1.045,-0.415 -0.982,-1.059 0.096,-0.98 1.375,-1.146 1.705,-0.221 m 104.971,-0.429 c 0.625,0.7 0.256,1.709 -0.626,1.709 -0.516,0 -0.916,-0.418 -0.916,-0.957 0,-0.891 0.987,-1.372 1.542,-0.752 m -107.504,7.834 0.045,3.125 h 1.75 1.75 l 0.045,-3.125 0.046,-3.125 h -1.841 -1.841 l 0.046,3.125 m 105.098,-1.527 c -0.063,1.909 -0.336,1.662 1.766,1.599 l 1.764,-0.052 v -1.573 -1.572 h -1.738 -1.739 l -0.053,1.598 m -97.47,-1.053 c -0.229,0.114 -0.552,0.484 -0.717,0.822 -1.018,2.078 1.67,3.787 3.205,2.038 0.789,-0.898 2.404,-0.856 3.679,0.095 0.686,0.512 1.045,0.666 1.546,0.666 h 0.652 l -0.713,-0.851 c -1.129,-1.349 -1.81,-1.717 -3.303,-1.788 -1.033,-0.049 -1.342,-0.13 -1.682,-0.44 -0.85,-0.775 -1.807,-0.969 -2.667,-0.542 m 90.996,0.075 c -0.227,0.157 -0.525,0.42 -0.662,0.584 -0.185,0.22 -0.601,0.327 -1.584,0.406 l -1.333,0.107 -1.25,1.222 -1.25,1.222 0.583,0.002 c 0.409,0.002 0.878,-0.197 1.564,-0.664 1.402,-0.951 2.693,-0.971 3.631,-0.055 1.592,1.554 4.156,-0.103 3.195,-2.065 -0.498,-1.018 -1.968,-1.403 -2.894,-0.759 m -89.533,0.806 c 0.432,0.302 0.485,0.936 0.109,1.312 -0.802,0.802 -1.893,-0.422 -1.129,-1.267 0.337,-0.372 0.54,-0.381 1.02,-0.045 m 91.233,0.016 c 0.374,0.339 0.394,0.945 0.042,1.296 -0.545,0.545 -1.404,0.178 -1.404,-0.601 0,-0.842 0.767,-1.233 1.362,-0.695 m -46.679,0.253 c 0.055,0.088 0.084,3.361 0.064,7.274 -0.038,7.355 -0.036,7.373 0.678,7.236 l 0.404,-0.077 0.043,-5.522 0.044,-5.523 2.334,-0.043 2.333,-0.043 2.211,2.127 2.212,2.126 -0.003,1.166 -0.003,1.167 -2.052,2 c -1.129,1.1 -3.216,3.125 -4.637,4.5 -1.422,1.375 -2.805,2.794 -3.073,3.154 l -0.488,0.653 -0.088,12.513 c -0.048,6.882 -0.104,12.525 -0.125,12.539 -0.02,0.015 -0.385,0.145 -0.811,0.29 -1.275,0.434 -2.16,1.049 -2.712,1.882 -1.074,1.621 -1.079,1.666 -1.142,10.344 -0.039,5.346 -0.113,7.875 -0.232,7.875 -0.096,0 -0.533,-0.202 -0.971,-0.448 -1.035,-0.582 -1.002,-0.24 -0.956,-9.826 l 0.037,-7.721 2.018,-2.044 c 1.11,-1.124 2.142,-2.23 2.292,-2.456 C 197.975,120.63 198,119.2 198,105.428 V 90.264 l 0.596,-0.611 c 1.684,-1.724 -0.002,-4.319 -2.101,-3.234 -1.255,0.649 -1.3,2.275 -0.094,3.402 l 0.432,0.404 v 14.965 14.965 l -0.541,0.624 c -0.298,0.343 -1.207,1.275 -2.019,2.072 -2.339,2.293 -2.104,1.111 -2.105,10.607 -0.001,6.172 -0.05,8.209 -0.197,8.209 -0.108,0 -1.214,-0.574 -2.458,-1.276 -1.245,-0.701 -2.526,-1.421 -2.846,-1.6 -0.321,-0.178 -0.865,-0.481 -1.209,-0.672 l -0.625,-0.347 v -5.743 -5.743 l 3,-3.041 c 2.45,-2.483 3.002,-3.128 3.01,-3.518 0.137,-7 -0.066,-21.545 -0.307,-22.054 -0.154,-0.324 -1.931,-2.265 -3.95,-4.312 -2.018,-2.047 -3.694,-3.831 -3.724,-3.963 -0.06,-0.264 2.245,-2.731 2.553,-2.731 0.105,0 1.93,1.706 4.055,3.791 l 3.864,3.792 0.041,6 0.042,6 h 0.5 0.5 l 0.046,-5.75 c 0.058,-7.333 0.489,-6.227 -4.253,-10.914 -2.295,-2.269 -3.722,-3.801 -3.685,-3.958 0.113,-0.497 7.103,-7.487 7.686,-7.688 0.687,-0.236 5.998,-0.303 6.139,-0.078 m 7.817,0.301 c 0.723,0.512 10.901,10.778 10.958,11.054 0.023,0.11 -1.68,1.951 -3.785,4.092 -2.435,2.478 -3.888,4.083 -3.996,4.417 -0.111,0.341 -0.157,4.357 -0.132,11.481 l 0.038,10.956 2.852,2.877 c 1.569,1.582 2.975,3.062 3.125,3.289 0.359,0.541 0.418,10.926 0.065,11.369 -0.26,0.326 -6.738,3.969 -7.058,3.969 -0.198,0 -0.234,-1.226 -0.234,-7.896 0,-9.742 0.257,-8.538 -2.401,-11.234 -1.2,-1.218 -2.213,-2.248 -2.25,-2.291 -0.254,-0.286 -0.209,-20.224 0.046,-20.757 0.151,-0.315 2.484,-2.781 5.185,-5.48 4.636,-4.633 4.897,-4.925 4.64,-5.209 -0.149,-0.165 -0.37,-0.3 -0.491,-0.3 -0.296,0 -10.021,9.619 -10.362,10.25 -0.406,0.751 -0.538,21.113 -0.141,21.851 0.276,0.515 0.834,1.142 3.045,3.419 l 1.396,1.437 v 8.564 8.565 l -0.757,0.457 c -1.309,0.791 -1.21,1.365 -1.282,-7.418 -0.084,-10.32 -0.35,-11.128 -4.045,-12.289 -0.366,-0.115 -0.72,-0.258 -0.785,-0.317 -0.269,-0.242 -0.176,-24.283 0.096,-24.809 0.14,-0.271 2.303,-2.492 4.805,-4.935 5.334,-5.208 5.132,-4.946 5.133,-6.658 0.002,-1.675 -0.082,-1.819 -2.361,-4.045 C 206.633,79.798 207.049,80 204.162,80 c -2.748,0 -2.662,0.04 -2.662,-1.23 0,-1.119 0.054,-1.137 3.25,-1.075 2.703,0.052 2.86,0.074 3.417,0.468 m 43.916,3.837 -0.77,0.667 -10.865,0.004 -10.865,0.005 0.623,0.579 0.622,0.578 h 10.416 10.415 l 0.257,0.393 c 1.022,1.559 3.584,0.917 3.584,-0.898 0,-1.963 -1.851,-2.683 -3.417,-1.328 m 2.112,0.609 c 0.592,0.536 0.219,1.558 -0.569,1.558 -0.811,0 -1.227,-0.929 -0.684,-1.529 0.344,-0.379 0.853,-0.391 1.253,-0.029 m -95.97,1.099 c -0.616,0.573 -1.333,1.248 -1.595,1.5 l -0.475,0.459 h -2.839 -2.838 l -0.551,-0.584 c -1.194,-1.266 -3.427,-0.496 -3.427,1.183 0,1.917 2.66,2.625 3.729,0.993 l 0.279,-0.426 h 3.005 3.005 l 1.574,-1.5 1.575,-1.5 h 5.717 5.717 l 0.566,-0.583 0.565,-0.583 h -6.443 -6.443 l -1.121,1.041 m -9.1,2.091 c 0.283,0.36 0.262,0.949 -0.042,1.201 -0.368,0.305 -1.107,0.254 -1.362,-0.094 -0.724,-0.991 0.646,-2.072 1.404,-1.107 m 12.292,0.769 c -0.535,0.238 -5.921,5.578 -6.113,6.06 -0.062,0.159 -0.119,0.602 -0.126,0.985 -0.011,0.695 -0.077,0.805 -0.906,1.511 -0.681,0.58 -0.648,2.17 0.057,2.764 1.948,1.639 4.443,-0.976 2.673,-2.802 -0.991,-1.023 -0.781,-1.822 0.956,-3.636 4.136,-4.317 3.553,-3.977 6.984,-4.081 l 2.707,-0.082 0.456,-0.477 0.457,-0.477 -3.322,0.007 c -2.394,0.005 -3.463,0.068 -3.823,0.228 m 72.25,-0.097 c 0,0.67 0.738,0.862 3.31,0.862 3.144,0 2.847,-0.149 5.879,2.966 2.876,2.955 3.172,3.602 2.161,4.709 -1.281,1.403 -0.569,3.325 1.233,3.325 1.823,0 2.61,-2.059 1.273,-3.33 -0.547,-0.52 -0.662,-0.754 -0.761,-1.544 -0.108,-0.87 -0.191,-1.007 -1.272,-2.101 -1.453,-1.47 -1.45,-1.525 0.077,-1.525 1.182,0 1.257,0.024 1.803,0.571 1.371,1.371 3.287,0.629 3.294,-1.276 0.007,-1.775 -2.804,-2.467 -3.531,-0.87 -0.182,0.398 -0.234,0.409 -2.045,0.409 h -1.859 l -1.19,-1.001 c -0.653,-0.551 -1.385,-1.076 -1.625,-1.167 -0.523,-0.199 -6.747,-0.225 -6.747,-0.028 m -35.673,1.06 c 0.799,0.859 -0.319,1.981 -1.189,1.193 -0.373,-0.337 -0.387,-0.699 -0.046,-1.187 0.33,-0.47 0.8,-0.472 1.235,-0.006 m 53.675,8.261 0.003,8.625 1.823,1.916 1.823,1.917 0.008,-10.542 0.007,-10.541 h -1.833 -1.833 l 0.002,8.625 m -72.933,-8.358 c 0.534,0.205 0.168,0.625 -4.653,5.341 l -4.916,4.809 -0.002,2.25 c -0.003,3.053 -0.054,3.277 -1.016,4.404 -0.631,0.739 -0.816,1.085 -0.816,1.525 0,0.673 -0.485,1.237 -1.064,1.237 -0.271,0 -0.429,0.119 -0.497,0.375 -0.234,0.871 -0.163,0.958 0.772,0.958 h 0.877 l 2.115,-2.125 c 2.539,-2.552 2.522,-2.515 2.373,-5.222 -0.146,-2.651 -0.501,-2.082 4.47,-7.163 3.758,-3.842 4.152,-4.197 4.391,-3.958 0.393,0.393 0.219,0.609 -2.797,3.459 -1.497,1.416 -3.342,3.191 -4.098,3.943 l -1.375,1.369 v 2.731 2.731 l -2.248,2.243 c -2.384,2.377 -2.765,2.64 -3.856,2.651 l -0.687,0.008 -0.084,0.871 -0.083,0.87 -3.021,2.964 c -2.42,2.374 -3.021,3.052 -3.021,3.408 0,0.989 -1.042,1.393 -1.638,0.635 -0.545,-0.692 -0.016,-1.581 0.941,-1.581 0.287,0 1.181,-0.776 3.285,-2.853 l 2.891,-2.852 0.093,-1.689 c 0.051,-0.929 0.096,-2.025 0.099,-2.435 0.007,-0.878 0.486,-1.505 1.15,-1.505 0.482,0 1.949,-1.311 2.197,-1.965 0.082,-0.214 0.149,-1.55 0.149,-2.968 v -2.579 l 4.229,-4.286 c 2.327,-2.357 4.444,-4.548 4.706,-4.868 0.679,-0.833 0.752,-0.879 1.134,-0.733 m 47.706,2.941 c 1.55,1.581 3.773,3.859 4.939,5.062 l 2.119,2.186 0.001,2.647 0.001,2.647 0.763,0.958 c 0.603,0.758 0.86,0.958 1.23,0.958 0.752,0 1.24,0.515 1.288,1.357 0.022,0.4 0.089,1.514 0.149,2.477 l 0.109,1.75 2.844,2.875 c 1.95,1.97 2.959,2.875 3.207,2.875 0.932,0 1.537,1.063 0.966,1.695 -0.605,0.668 -1.855,0.114 -1.69,-0.748 0.064,-0.334 -0.403,-0.88 -2.895,-3.381 -2.519,-2.529 -2.972,-3.059 -2.975,-3.483 -0.006,-1.072 -0.14,-1.25 -0.942,-1.25 -1.072,0 -1.403,-0.233 -3.848,-2.708 l -2.208,-2.236 v -2.675 -2.675 l -4.34,-4.216 c -2.496,-2.424 -4.319,-4.321 -4.292,-4.464 0.116,-0.594 0.598,-0.258 2.676,1.863 1.213,1.239 3.144,3.201 4.289,4.362 l 2.084,2.109 0.096,2.638 c 0.11,3.037 0.028,2.835 1.923,4.757 2.314,2.346 2.635,2.578 3.574,2.578 0.721,0 0.823,-0.042 0.823,-0.344 0,-0.512 -0.306,-0.989 -0.635,-0.989 -0.571,0 -1.031,-0.487 -1.031,-1.093 0,-0.429 -0.198,-0.827 -0.787,-1.586 -0.874,-1.125 -1.015,-1.785 -1.036,-4.855 -0.014,-1.968 0.21,-1.666 -5.021,-6.777 -4.35,-4.251 -5.151,-5.189 -4.428,-5.189 0.125,0 1.496,1.294 3.047,2.875 m 23.205,-1.601 c 0.375,0.822 -0.509,1.631 -1.251,1.144 -0.324,-0.212 -0.404,-0.389 -0.364,-0.799 0.091,-0.937 1.234,-1.181 1.615,-0.345 m -103.071,1.601 c -0.043,0.115 -0.06,4.183 -0.036,9.042 l 0.043,8.833 1.875,-1.824 1.875,-1.824 v -7.218 -7.217 h -1.838 c -1.317,0 -1.861,0.059 -1.919,0.208 m 36.154,1.215 c 0.087,0.229 -1.105,1.461 -7.152,7.389 -0.035,0.034 -0.184,0.016 -0.331,-0.04 -0.355,-0.136 0.132,-1.021 0.753,-1.371 0.229,-0.128 1.729,-1.575 3.333,-3.215 2.941,-3.005 3.217,-3.23 3.397,-2.763 m 39.844,2.724 c 1.655,1.64 3.291,3.223 3.634,3.518 0.696,0.597 0.807,1.001 0.274,1.001 -0.215,0 -0.812,-0.467 -1.543,-1.208 -0.656,-0.665 -2.255,-2.246 -3.555,-3.514 -2.174,-2.122 -2.646,-2.778 -2,-2.778 0.099,0 1.535,1.342 3.19,2.981 m -66.336,1.615 c 0.337,0.337 0.333,0.717 -0.014,1.1 -0.495,0.546 -1.391,0.206 -1.391,-0.529 0,-0.17 0.118,-0.427 0.262,-0.571 0.144,-0.144 0.401,-0.262 0.572,-0.262 0.17,0 0.427,0.118 0.571,0.262 M 246.8,95.867 c 0.539,0.538 0.053,1.362 -0.748,1.27 -0.398,-0.046 -0.477,-0.139 -0.523,-0.62 -0.074,-0.773 0.735,-1.187 1.271,-0.65 m -8.396,6.267 c 3.35,3.368 3.09,2.976 3.093,4.669 0.003,1.606 0.168,2.03 0.787,2.03 0.846,0 1.405,1.078 0.849,1.634 -0.368,0.368 -1.265,0.241 -1.568,-0.222 -0.152,-0.232 -0.232,-0.467 -0.178,-0.521 0.055,-0.055 -0.016,-0.324 -0.158,-0.598 -0.153,-0.296 -0.295,-1.151 -0.349,-2.104 l -0.091,-1.605 -2.27,-2.311 c -1.248,-1.271 -2.516,-2.417 -2.818,-2.547 -0.634,-0.273 -0.826,-0.624 -0.533,-0.978 0.32,-0.385 0.289,-0.409 3.236,2.553 m -71.463,-2.382 c 0.126,0.329 -0.229,0.748 -0.633,0.748 -0.415,0 -4.647,4.241 -5.023,5.034 -0.18,0.378 -0.287,1.021 -0.291,1.741 -0.003,0.674 -0.103,1.312 -0.244,1.558 -0.131,0.23 -0.241,0.646 -0.244,0.925 -0.011,0.945 -1.205,1.312 -1.747,0.538 -0.482,-0.689 -0.011,-1.463 0.891,-1.463 0.621,0 0.85,-0.595 0.85,-2.211 0,-1.466 0.311,-1.921 3.245,-4.752 1.149,-1.107 2.088,-2.094 2.088,-2.192 0,-0.28 0.997,-0.213 1.108,0.074 m 8.173,0.444 c 0.472,0.443 0.495,0.987 0.058,1.382 -1.017,0.921 -2.397,-0.368 -1.43,-1.336 0.505,-0.504 0.872,-0.517 1.372,-0.046 m 53.204,0.202 c 0.306,0.369 0.158,0.941 -0.337,1.309 -0.926,0.689 -2.058,-0.653 -1.189,-1.409 0.574,-0.501 1.053,-0.469 1.526,0.1 m -54.257,0.351 c -0.058,0.15 -0.025,0.353 0.072,0.451 0.254,0.254 0.735,0.022 0.669,-0.323 -0.074,-0.383 -0.608,-0.476 -0.741,-0.128 m 53.124,-0.021 c -0.243,0.293 0.149,0.659 0.544,0.507 0.346,-0.133 0.35,-0.502 0.007,-0.634 -0.346,-0.133 -0.333,-0.136 -0.551,0.127 M 167,102.147 c 0,0.172 -0.246,0.501 -0.546,0.73 -0.301,0.229 -1.088,0.959 -1.75,1.621 l -1.204,1.203 -0.008,1.775 c -0.011,2.757 -1.571,4.855 -3.611,4.857 -0.897,0.001 -2.972,1.782 -2.813,2.416 0.215,0.855 -0.913,1.427 -1.597,0.809 -0.584,-0.529 0.014,-1.558 0.906,-1.558 0.183,0 0.849,-0.487 1.481,-1.083 1.079,-1.018 1.196,-1.084 1.937,-1.085 1.824,-0.002 3.038,-1.754 3.038,-4.385 0,-2.002 -0.005,-1.992 2.334,-4.321 1.266,-1.261 1.833,-1.564 1.833,-0.979 m 70.301,1.577 c 2.065,2.094 1.976,1.89 1.878,4.299 -0.078,1.914 1.352,3.81 2.872,3.81 0.811,0 1.535,0.441 2.672,1.627 0.447,0.466 0.738,0.642 0.964,0.583 0.739,-0.193 1.283,0.964 0.718,1.528 -0.591,0.591 -1.76,-0.054 -1.47,-0.81 0.231,-0.602 -1.946,-2.428 -2.894,-2.428 -2.05,0 -3.538,-2.087 -3.54,-4.964 l -0.001,-1.547 -1.435,-1.489 c -0.79,-0.819 -1.57,-1.532 -1.735,-1.584 -0.526,-0.167 -0.61,-0.916 -0.103,-0.916 0.115,0 1.048,0.851 2.074,1.891 m -71.357,1.887 c -0.199,0.199 -0.117,0.518 0.16,0.624 0.345,0.132 0.738,-0.185 0.618,-0.497 -0.094,-0.245 -0.58,-0.324 -0.778,-0.127 m 69.504,-0.003 c -0.245,0.245 -0.116,0.75 0.177,0.694 0.16,-0.031 0.292,-0.199 0.292,-0.374 0,-0.331 -0.272,-0.517 -0.469,-0.32 m -76.948,2.353 c 0,0.162 -0.825,1.117 -1.833,2.122 -1.581,1.576 -1.834,1.902 -1.834,2.369 0,0.773 -0.677,1.221 -1.311,0.866 -0.806,-0.451 -0.511,-1.651 0.406,-1.651 0.261,0 0.977,-0.614 2.336,-2 2,-2.042 2.236,-2.222 2.236,-1.706 m 87.22,1.791 c 1.503,1.595 1.886,1.915 2.292,1.915 0.83,0 1.333,0.688 0.982,1.344 -0.388,0.726 -1.827,0.218 -1.827,-0.646 0,-0.306 -0.485,-0.908 -1.834,-2.274 -1.008,-1.022 -1.833,-1.984 -1.833,-2.136 0,-0.471 0.351,-0.186 2.22,1.797 m -86.49,-0.177 c -0.117,0.306 0.053,0.592 0.353,0.592 0.343,0 0.473,-0.315 0.244,-0.591 -0.256,-0.309 -0.479,-0.309 -0.597,-10e-4 m 82.77,0.258 c 0,0.389 0.579,0.469 0.721,0.1 0.112,-0.293 -0.022,-0.433 -0.415,-0.433 -0.195,0 -0.306,0.121 -0.306,0.333 m -49.467,0.327 c -0.886,0.885 -0.794,2.195 0.217,3.122 l 0.583,0.534 v 3.04 3.039 l -2.685,2.594 -2.685,2.594 -0.139,1.334 c -0.077,0.733 -0.143,2.275 -0.148,3.427 l -0.009,2.093 -0.494,0.365 c -1.561,1.155 -0.741,3.536 1.215,3.528 1.933,-0.009 2.648,-1.908 1.279,-3.394 l -0.667,-0.723 -0.001,-2.982 v -2.981 l 2.75,-2.677 2.751,-2.677 v -3.311 -3.311 l 0.573,-0.525 c 0.657,-0.602 0.845,-1.16 0.683,-2.025 -0.283,-1.512 -2.157,-2.13 -3.223,-1.064 m -16.158,0.938 -0.542,0.426 v 2.546 2.547 l -0.482,0.65 c -1.211,1.632 -4.131,4.283 -4.591,4.167 -1.909,-0.479 -3.272,1.921 -1.88,3.312 1.439,1.44 3.672,0.228 3.34,-1.813 -0.085,-0.524 0.027,-0.675 2.079,-2.808 1.193,-1.24 2.267,-2.431 2.386,-2.648 0.208,-0.378 0.431,-5.252 0.29,-6.349 l -0.058,-0.456 -0.542,0.426 m 18.255,0.041 c 0.293,0.374 0.199,0.683 -0.329,1.077 -0.562,0.419 -1.301,0.063 -1.301,-0.627 0,-0.814 1.105,-1.119 1.63,-0.45 m 30.402,3.216 c 0.06,4.001 -0.087,3.616 2.324,6.118 2.149,2.231 2.137,2.214 2.212,3.122 0.156,1.869 1.459,2.75 2.937,1.986 1.933,-1 0.856,-3.996 -1.331,-3.703 -0.649,0.087 -0.662,0.077 -2.596,-1.926 -2.622,-2.716 -2.44,-2.327 -2.54,-5.448 l -0.085,-2.653 -0.486,-0.466 -0.487,-0.466 0.052,3.436 m -71.504,-1.827 c 0.037,0.259 0.166,0.389 0.389,0.389 0.496,0 0.446,-0.651 -0.055,-0.722 -0.323,-0.046 -0.379,0.01 -0.334,0.333 m 94.305,-0.028 c 0,0.222 0.111,0.333 0.334,0.333 0.222,0 0.333,-0.111 0.333,-0.333 0,-0.222 -0.111,-0.333 -0.333,-0.333 -0.223,0 -0.334,0.111 -0.334,0.333 m -40.166,3.675 c 0,4.597 -0.189,4.097 2.561,6.793 3.25,3.187 2.939,2.555 2.939,5.968 v 2.911 l -0.667,0.634 c -1.382,1.314 -0.585,3.393 1.295,3.378 1.991,-0.015 2.803,-2.016 1.372,-3.378 l -0.667,-0.634 -0.001,-2.715 c -0.001,-3.858 0.119,-3.592 -2.968,-6.575 l -2.614,-2.526 -0.053,-3.849 -0.053,-3.849 h -0.572 -0.572 v 3.842 m -51.787,-1.488 c -0.254,0.254 -0.08,0.646 0.287,0.646 0.369,0 0.588,-0.508 0.297,-0.692 -0.285,-0.181 -0.364,-0.175 -0.584,0.046 m 89.552,-0.045 c -0.166,0.268 0.092,0.711 0.381,0.656 0.355,-0.069 0.35,-0.695 -0.006,-0.763 -0.152,-0.03 -0.321,0.019 -0.375,0.107 m -87.192,2.374 c -0.062,0.1 -0.01,0.285 0.115,0.411 0.289,0.289 0.733,0.043 0.591,-0.327 -0.117,-0.305 -0.538,-0.355 -0.706,-0.084 m 84.708,0.047 c -0.14,0.365 0.216,0.617 0.588,0.418 0.254,-0.136 0.279,-0.219 0.121,-0.409 -0.251,-0.303 -0.595,-0.307 -0.709,-0.009 m -72.012,5.86 c 0.391,0.596 0.096,1.244 -0.566,1.244 -0.566,0 -0.87,-0.27 -0.87,-0.772 0,-0.863 0.971,-1.181 1.436,-0.472 m 61.219,0.349 c 0.429,0.546 0.429,0.644 0.001,1.072 -0.67,0.67 -1.726,-0.081 -1.287,-0.917 0.377,-0.717 0.803,-0.768 1.286,-0.155 m -30.268,2.407 c 0.828,0.23 1.87,1.18 2.145,1.957 0.261,0.736 0.21,17.148 -0.054,17.471 -1.116,1.365 -5.16,1.147 -5.919,-0.32 -0.411,-0.796 -0.268,-16.437 0.159,-17.302 0.758,-1.537 2.158,-2.226 3.669,-1.806 m -12.768,7.804 c 0.291,0.382 0.261,0.637 -0.119,1.017 -0.437,0.437 -0.918,0.423 -1.241,-0.037 -0.701,-1.001 0.619,-1.953 1.36,-0.98 m 25.229,-0.135 c 0.574,0.574 0.206,1.477 -0.606,1.483 -0.779,0.006 -1.041,-1.103 -0.372,-1.572 0.479,-0.335 0.561,-0.328 0.978,0.089"
       stroke="none"
       fill="#3b5c76"
       fill-rule="evenodd"
       style="display:inline;fill:#447abd;fill-opacity:1"
       inkscape:label="path 0" /></g></svg>
