<?xml version="1.0" encoding="UTF-8" standalone="no"?>
<!-- Generator: Adobe Illustrator 25.2.1, SVG Export Plug-In . SVG Version: 6.00 Build 0)  -->

<svg
   version="1.1"
   id="Layer_1"
   x="0px"
   y="0px"
   viewBox="0 0 566.75 195.14"
   xml:space="preserve"
   sodipodi:docname="OU-logo (1).svg"
   width="566.75"
   height="195.14"
   inkscape:version="1.3.2 (091e20e, 2023-11-25, custom)"
   xmlns:inkscape="http://www.inkscape.org/namespaces/inkscape"
   xmlns:sodipodi="http://sodipodi.sourceforge.net/DTD/sodipodi-0.dtd"
   xmlns="http://www.w3.org/2000/svg"
   xmlns:svg="http://www.w3.org/2000/svg"><defs
   id="defs18" /><sodipodi:namedview
   id="namedview18"
   pagecolor="#ffffff"
   bordercolor="#000000"
   borderopacity="0.25"
   inkscape:showpageshadow="2"
   inkscape:pageopacity="0.0"
   inkscape:pagecheckerboard="0"
   inkscape:deskcolor="#d1d1d1"
   inkscape:zoom="1.3710272"
   inkscape:cx="283.36417"
   inkscape:cy="97.372245"
   inkscape:window-width="1920"
   inkscape:window-height="1001"
   inkscape:window-x="-9"
   inkscape:window-y="326"
   inkscape:window-maximized="1"
   inkscape:current-layer="Layer_1" />
<style
   type="text/css"
   id="style1">
	.st0{fill:#E30613;}
</style>
<g
   id="g18"
   transform="translate(-28.35,-28.35)">
	<path
   class="st0"
   d="m 80.13,28.35 c -28.6,0 -51.78,21.34 -51.78,47.68 v 99.78 c 0,26.33 23.18,47.68 51.78,47.68 28.6,0 51.78,-21.35 51.78,-47.68 V 76.03 c 0,-26.34 -23.19,-47.68 -51.78,-47.68 z m 28.93,151.52 c 0,13.04 -12.95,23.62 -28.93,23.62 -15.99,0 -28.93,-10.57 -28.93,-23.62 v -46.79 h 18.87 v 46.79 c 0,4.45 4.5,8.06 10.06,8.06 5.56,0 10.06,-3.61 10.06,-8.06 v -46.79 h 18.87 z M 80.13,116.39 c -18.95,0 -34.3,-15.35 -34.3,-34.3 0,-18.94 15.35,-34.3 34.3,-34.3 18.94,0 34.3,15.35 34.3,34.3 -0.01,18.95 -15.36,34.3 -34.3,34.3 z"
   id="path1" />
	<g
   id="g17">
		<path
   d="m 191.06,125.15 c 0,11.77 -7.13,18.9 -17.62,18.9 -10.65,0 -16.88,-8.04 -16.88,-18.26 0,-10.75 6.87,-18.79 17.46,-18.79 11.02,0 17.04,8.25 17.04,18.15 z m -25.92,0.48 c 0,7.03 3.3,11.98 8.73,11.98 5.48,0 8.62,-5.22 8.62,-12.19 0,-6.44 -3.09,-11.98 -8.68,-11.98 -5.48,0 -8.67,5.22 -8.67,12.19 z"
   id="path2" />
		<path
   d="m 197.93,126.16 c 0,-3.41 -0.11,-6.33 -0.21,-8.73 h 7.03 l 0.37,3.62 h 0.11 c 1.92,-2.77 4.9,-4.2 8.68,-4.2 5.69,0 10.81,4.95 10.81,13.26 0,9.47 -6.01,13.94 -11.82,13.94 -3.14,0 -5.59,-1.28 -6.76,-2.98 h -0.11 v 12.94 h -8.09 v -27.85 z m 8.09,6.13 c 0,0.64 0.05,1.23 0.16,1.7 0.53,2.18 2.4,3.83 4.74,3.83 3.51,0 5.59,-2.93 5.59,-7.35 0,-4.15 -1.86,-7.29 -5.48,-7.29 -2.29,0 -4.31,1.7 -4.85,4.1 -0.1,0.43 -0.16,0.96 -0.16,1.44 z"
   id="path3" />
		<path
   d="m 237.76,133.03 c 0.27,3.35 3.57,4.95 7.35,4.95 2.77,0 5,-0.37 7.19,-1.06 l 1.06,5.48 c -2.66,1.06 -5.91,1.65 -9.42,1.65 -8.84,0 -13.89,-5.16 -13.89,-13.31 0,-6.6 4.1,-13.9 13.15,-13.9 8.41,0 11.6,6.55 11.6,12.99 0,1.38 -0.16,2.61 -0.27,3.19 h -16.77 z m 9.52,-5.53 c 0,-1.97 -0.85,-5.27 -4.58,-5.27 -3.41,0 -4.79,3.09 -5.01,5.27 z"
   id="path4" />
		<path
   d="m 261.24,125.74 c 0,-3.25 -0.11,-6.01 -0.21,-8.3 h 7.03 l 0.37,3.57 h 0.16 c 1.06,-1.65 3.73,-4.15 8.04,-4.15 5.32,0 9.31,3.51 9.31,11.18 v 15.44 h -8.09 v -14.42 c 0,-3.35 -1.17,-5.65 -4.1,-5.65 -2.23,0 -3.57,1.55 -4.1,3.04 -0.21,0.53 -0.32,1.28 -0.32,2.02 v 15.01 h -8.09 z"
   id="path5" />
		<path
   d="m 313.68,107.59 v 20.65 c 0,6.17 2.34,9.32 6.49,9.32 4.26,0 6.6,-2.98 6.6,-9.32 v -20.65 h 8.09 v 20.12 c 0,11.07 -5.59,16.34 -14.96,16.34 -9.05,0 -14.37,-5 -14.37,-16.45 v -20.02 h 8.15 z"
   id="path6" />
		<path
   d="m 343.23,125.74 c 0,-3.25 -0.11,-6.01 -0.21,-8.3 h 7.03 l 0.37,3.57 h 0.16 c 1.06,-1.65 3.73,-4.15 8.04,-4.15 5.32,0 9.32,3.51 9.32,11.18 v 15.44 h -8.09 v -14.42 c 0,-3.35 -1.17,-5.65 -4.1,-5.65 -2.24,0 -3.57,1.55 -4.1,3.04 -0.21,0.53 -0.32,1.28 -0.32,2.02 v 15.01 h -8.09 v -17.74 z"
   id="path7" />
		<path
   d="m 384.39,110.19 c 0,2.24 -1.7,4.05 -4.37,4.05 -2.56,0 -4.26,-1.81 -4.2,-4.05 -0.05,-2.34 1.65,-4.1 4.26,-4.1 2.6,0.01 4.25,1.76 4.31,4.1 z m -8.36,33.28 v -26.03 h 8.09 v 26.03 z"
   id="path8" />
		<path
   d="m 398.23,117.43 3.51,12.09 c 0.64,2.18 1.12,4.26 1.49,6.34 h 0.16 c 0.43,-2.13 0.85,-4.1 1.44,-6.34 l 3.35,-12.09 h 8.52 l -9.69,26.03 h -8.09 l -9.48,-26.03 z"
   id="path9" />
		<path
   d="m 427.46,133.03 c 0.26,3.35 3.57,4.95 7.34,4.95 2.77,0 5,-0.37 7.19,-1.06 l 1.06,5.48 c -2.66,1.06 -5.91,1.65 -9.42,1.65 -8.84,0 -13.9,-5.16 -13.9,-13.31 0,-6.6 4.1,-13.9 13.15,-13.9 8.41,0 11.6,6.55 11.6,12.99 0,1.38 -0.16,2.61 -0.26,3.19 h -16.76 z m 9.53,-5.53 c 0,-1.97 -0.85,-5.27 -4.58,-5.27 -3.41,0 -4.79,3.09 -5,5.27 z"
   id="path10" />
		<path
   d="m 450.94,126.01 c 0,-3.83 -0.1,-6.33 -0.21,-8.57 h 6.97 l 0.26,4.79 h 0.21 c 1.33,-3.78 4.53,-5.38 7.03,-5.38 0.75,0 1.12,0 1.7,0.11 v 7.67 c -0.58,-0.16 -1.28,-0.26 -2.18,-0.26 -2.98,0 -5,1.59 -5.54,4.1 -0.11,0.53 -0.16,1.17 -0.16,1.81 v 13.2 h -8.09 v -17.47 z"
   id="path11" />
		<path
   d="m 472.71,136.38 c 1.49,0.91 4.58,1.97 6.97,1.97 2.45,0 3.46,-0.85 3.46,-2.18 0,-1.33 -0.8,-1.97 -3.83,-2.98 -5.38,-1.81 -7.45,-4.74 -7.4,-7.77 0,-4.9 4.15,-8.57 10.59,-8.57 3.04,0 5.75,0.69 7.35,1.49 l -1.44,5.59 c -1.17,-0.64 -3.41,-1.49 -5.64,-1.49 -1.97,0 -3.09,0.8 -3.09,2.13 0,1.22 1.01,1.86 4.21,2.98 4.95,1.7 7.03,4.2 7.08,8.04 0,4.84 -3.83,8.46 -11.29,8.46 -3.41,0 -6.44,-0.8 -8.41,-1.86 z"
   id="path12" />
		<path
   d="m 505.83,110.19 c 0,2.24 -1.7,4.05 -4.36,4.05 -2.56,0 -4.26,-1.81 -4.21,-4.05 -0.05,-2.34 1.65,-4.1 4.26,-4.1 2.6,0.01 4.25,1.76 4.31,4.1 z m -8.36,33.28 v -26.03 h 8.09 v 26.03 z"
   id="path13" />
		<path
   d="m 522.7,110.36 v 7.08 h 5.8 v 5.96 h -5.8 v 9.42 c 0,3.14 0.75,4.58 3.19,4.58 1.12,0 1.6,-0.05 2.4,-0.21 l 0.05,6.12 c -1.06,0.43 -2.98,0.74 -5.27,0.74 -2.61,0 -4.79,-0.96 -6.07,-2.29 -1.49,-1.55 -2.24,-4.05 -2.24,-7.72 V 123.4 h -3.46 v -5.96 h 3.46 v -4.9 z"
   id="path14" />
		<path
   d="m 540.76,133.03 c 0.27,3.35 3.57,4.95 7.35,4.95 2.77,0 5,-0.37 7.19,-1.06 l 1.06,5.48 c -2.66,1.06 -5.91,1.65 -9.42,1.65 -8.84,0 -13.89,-5.16 -13.89,-13.31 0,-6.6 4.1,-13.9 13.15,-13.9 8.41,0 11.6,6.55 11.6,12.99 0,1.38 -0.16,2.61 -0.27,3.19 h -16.77 z m 9.52,-5.53 c 0,-1.97 -0.85,-5.27 -4.58,-5.27 -3.41,0 -4.79,3.09 -5.01,5.27 z"
   id="path15" />
		<path
   d="m 572.6,110.19 c 0,2.24 -1.7,4.05 -4.37,4.05 -2.56,0 -4.26,-1.81 -4.2,-4.05 -0.05,-2.34 1.65,-4.1 4.26,-4.1 2.6,0.01 4.25,1.76 4.31,4.1 z m -8.36,33.28 v -26.03 h 8.09 v 26.03 z"
   id="path16" />
		<path
   d="m 589.47,110.36 v 7.08 h 5.6 v 5.96 h -5.6 v 9.42 c 0,3.14 0.74,4.58 3.19,4.58 1.12,0 1.59,-0.05 2.39,-0.21 l 0.05,6.12 c -1.06,0.43 -2.98,0.74 -5.27,0.74 -2.61,0 -4.79,-0.96 -6.07,-2.29 -1.49,-1.55 -2.24,-4.05 -2.24,-7.72 V 123.4 h -3.46 v -5.96 h 3.46 v -4.9 z"
   id="path17" />
	</g>
</g>
</svg>
